SplineFontDB: 3.2
FontName: SingScript.sg_letterlike
FullName: SingScript.sg "letterlike" module
FamilyName: SingScript.sg
Weight: Regular
Copyright: Copyright (c) 2025, 05524F.sg (Singapore)
Version: v2
ItalicAngle: 0
UnderlinePosition: -100
UnderlineWidth: 67
Ascent: 600
Descent: 300
InvalidEm: 0
sfntRevision: 0x00010000
LayerCount: 2
Layer: 0 0 "Back" 1
Layer: 1 0 "Fore" 0
XUID: [1021 768 647112374 32286]
StyleMap: 0x0040
FSType: 0
OS2Version: 4
OS2_WeightWidthSlopeOnly: 0
OS2_UseTypoMetrics: 1
CreationTime: 1740441635
ModificationTime: 1753306466
PfmFamily: 65
TTFWeight: 400
TTFWidth: 5
LineGap: 81
VLineGap: 0
Panose: 3 0 5 3 0 0 0 0 0 0
OS2TypoAscent: 600
OS2TypoAOffset: 0
OS2TypoDescent: -300
OS2TypoDOffset: 0
OS2TypoLinegap: 81
OS2WinAscent: 590
OS2WinAOffset: 0
OS2WinDescent: 233
OS2WinDOffset: 0
HheadAscent: 590
HheadAOffset: 0
HheadDescent: -233
HheadDOffset: 0
OS2SubXSize: 585
OS2SubYSize: 630
OS2SubXOff: 0
OS2SubYOff: 126
OS2SupXSize: 585
OS2SupYSize: 630
OS2SupXOff: 0
OS2SupYOff: 432
OS2StrikeYSize: 44
OS2StrikeYPos: 232
OS2CapHeight: 467
OS2XHeight: 300
OS2Vendor: '5524'
OS2CodePages: 00000001.00000000
OS2UnicodeRanges: 80000003.10000000.00000000.00000000
MarkAttachClasses: 1
DEI: 91125
LangName: 1033 "" "" "" "" "" "Version v2"
Encoding: Custom
UnicodeInterp: none
NameList: AGL For New Fonts
DisplaySize: -48
AntiAlias: 1
FitToEm: 0
WidthSeparation: 50
WinInfo: 0 27 5
BeginPrivate: 6
BlueValues 21 [0 0 300 300 467 467]
OtherBlues 11 [-233 -233]
StdHW 4 [67]
StdVW 4 [67]
StemSnapH 33 [52 59 63 67 73 78 86 93 159 167]
StemSnapV 4 [67]
EndPrivate
Grid
0 -200 m 24
 351 -200 549 -200 900 -200 c 1048
0 -233 m 24
 351 -233 549 -233 900 -233 c 1048
250 211 m 24
 289 211 311 211 350 211 c 1048
250 100 m 24
 289 100 311 100 350 100 c 1048
250 -100 m 24
 289 -100 311 -100 350 -100 c 1048
250 -255 m 24
 289 -255 311 -255 350 -255 c 1048
100 511 m 24
 139 511 161 511 200 511 c 1048
100 400 m 24
 139 400 161 400 200 400 c 1048
100 200 m 24

StartChar: uni2102
Encoding: 0 8450 0
Width: 367
VWidth: 0
Flags: HW
LayerCount: 2
Fore
SplineSet
26.2548828125 211.1484375 m 0
 26.2548828125 377.55078125 130.672851562 466.38671875 239.520507812 466.38671875 c 0
 262.5703125 466.38671875 285.642578125 462.450195312 307.963867188 454.607421875 c 0
 320.990234375 450.043945312 330.353515625 437.610351562 330.353515625 423.005859375 c 0
 330.353515625 404.513671875 315.33984375 389.5 296.846679688 389.5 c 0
 284.599609375 389.5 271.243164062 399.38671875 239.520507812 399.38671875 c 0
 226.557617188 399.38671875 213.719726562 397.536132812 201.342773438 393.813476562 c 1
 201.151367188 289.663085938 187.330078125 173.989257812 173.453125 66.7138671875 c 1
 204.387695312 67.568359375 246.603515625 73.0771484375 301.885742188 84.775390625 c 2
 301.930664062 84.7841796875 l 2
 304.176757812 85.259765625 306.504882812 85.509765625 308.890625 85.509765625 c 0
 327.3828125 85.509765625 342.396484375 70.49609375 342.396484375 52.00390625 c 0
 342.396484375 35.8974609375 331.0078125 22.4306640625 315.803710938 19.224609375 c 0
 252.626953125 5.8564453125 204.043945312 -0.404296875 165.095703125 -0.404296875 c 0
 31.98828125 -0.404296875 25 80.9296875 25 131.21875 c 0
 25 151.541015625 26.4453125 172.567382812 26.4453125 193.502929688 c 0
 26.4453125 193.952148438 26.2548828125 210.971679688 26.2548828125 211.1484375 c 0
133.321289062 346.362304688 m 1
 118.470703125 327.317382812 93.2548828125 285.91015625 93.2548828125 211.1484375 c 0
 93.2548828125 210.971679688 93.4453125 195.60546875 93.4453125 193.502929688 c 0
 93.4453125 188.896484375 92 131.841796875 92 131.21875 c 0
 92 107.79296875 95.1572265625 92.7802734375 99.9833984375 85.33203125 c 0
 101.446289062 83.076171875 103.618164062 80.4345703125 107.325195312 77.8583984375 c 1
 118.818359375 167.02734375 129.959960938 260.77734375 133.321289062 346.362304688 c 1
EndSplineSet
EndChar

StartChar: uni2103
Encoding: 1 8451 1
Width: 424
Flags: HW
HStem: 337 67<72.0805 104.53>
VStem: 3 69<280.661 328> 105 67<287.012 335.73>
LayerCount: 2
Fore
SplineSet
180 98 m 1024x30
226 68 m 0xb0
 242 68 265 77 289 85 c 0
 313 93 336 102 352 102 c 0x70
 370 102 386 86 386 68 c 0xb0
 386 52 364 30 348 30 c 1x70
 294 8 261 0 226 0 c 0
 164 0 113 45 113 99 c 0
 113 168 226 345 342 458 c 0
 348 464 356 467 365 467 c 0
 383 467 399 452 399 434 c 0
 399 426 395 417 388 410 c 0
 295 320 180 148 180 99 c 1
 186 77 200 68 226 68 c 0xb0
95 385 m 0
 94 384 l 0
 94 383 l 2
 94 381 l 2
 92 376 92 374 92 366 c 0
 92 356 93 346 96 336 c 1
 114 345 127 360 127 371 c 0
 127 382 116 393 104 393 c 0
 98 393 97 392 95 385 c 0
91 267 m 0
 50 267 25 305 25 366 c 0
 25 424 56 460 104 460 c 0
 153 460 194 419 194 371 c 0
 194 321 140 267 91 267 c 0
EndSplineSet
EndChar

StartChar: uni2107
Encoding: 2 8455 2
Width: 232
VWidth: 0
Flags: W
HStem: -1 67<92.9186 181.279> 109 66<97.5762 178.876> 231 70<117.7 203.363>
VStem: 25 67<67.372 102.041>
LayerCount: 2
Fore
SplineSet
206 46 m 0
 206 20 170 -1 124 -1 c 0
 67 -1 25 37 25 88 c 0
 25 108 33 127 47 141 c 1
 35 153 30 167 30 184 c 0
 30 239 65 271 151 295 c 0
 170 300 169 301 173 301 c 0
 191 301 207 285 207 267 c 0
 207 247 198 239 169 231 c 0
 116 216 98 204 97 185 c 1
 107 179 127 175 147 175 c 0
 148 175 l 0
 148 176 l 0
 166 176 182 160 182 142 c 0
 182 124 167 109 149 109 c 0
 121 108 92 98 92 88 c 0
 92 75 104 66 124 66 c 0
 135 66 141 70 148 73 c 0
 155 76 161 80 172 80 c 0
 190 80 206 64 206 46 c 0
EndSplineSet
EndChar

StartChar: uni210A
Encoding: 3 8458 3
Width: 509
VWidth: 0
Flags: HW
LayerCount: 2
Fore
SplineSet
182.547851562 66.5 m 0
 209.1171875 66.5 253.309570312 72.34375 259.749023438 156.14453125 c 0
 259.749023438 157.830078125 259.75390625 159.490234375 259.75390625 161.123046875 c 0
 259.75390625 167.348632812 259.73046875 173.234375 259.69140625 178.63671875 c 1
 241.942382812 158.71484375 229.545898438 148.407226562 212.47265625 134.209960938 c 0
 197.854492188 122.053710938 184.220703125 110.362304688 167.08203125 101.328125 c 1
 168.755859375 82.8154296875 175.208984375 66.5 182.547851562 66.5 c 0
162.361328125 -149.541992188 m 0
 162.626953125 -155.25390625 181.080078125 -166.5 190.547851562 -166.5 c 0
 195.803710938 -166.5 207.282226562 -161.842773438 220.51953125 -141.116210938 c 1
 209.0546875 -140.666992188 198.776367188 -140.40625 190.080078125 -140.40625 c 0
 180.84765625 -140.40625 173.25 -140.840820312 169.2109375 -141.243164062 c 0
 163.186523438 -146.374023438 162.400390625 -149.391601562 162.361328125 -149.541992188 c 0
182.547851562 -0.5 m 0
 142.1015625 -0.5 109.666015625 31.064453125 101.572265625 84.4873046875 c 1
 95.197265625 84.087890625 88.5009765625 83.900390625 81.4296875 83.900390625 c 0
 73.78125 83.900390625 65.65234375 84.1181640625 56.912109375 84.5390625 c 0
 39.1337890625 85.39453125 25 100.060546875 25 118.001953125 c 0
 25 136.491210938 40.0107421875 151.501953125 58.5009765625 151.501953125 c 0
 60.5546875 151.501953125 69.6552734375 150.900390625 81.4296875 150.900390625 c 0
 90.111328125 150.900390625 97.3916015625 151.23828125 103.60546875 151.84765625 c 1
 108.645507812 177.266601562 124.370117188 227.518554688 172.790039062 270.435546875 c 0
 187.3828125 283.369140625 211.0703125 300.39453125 239.5 300.39453125 c 0
 264.880859375 300.39453125 298.78515625 283.663085938 298.78515625 251.209960938 c 0
 298.78515625 250.1953125 298.759765625 249.20703125 298.7109375 248.244140625 c 0
 305.057617188 247.006835938 324.387695312 241.041015625 325.96875 214.150390625 c 0
 325.993164062 213.741210938 327.405273438 180.383789062 327.405273438 173.146484375 c 0
 327.405273438 166.69921875 327.233398438 159.685546875 326.7421875 152.26953125 c 0
 326.52734375 68.458984375 324.1015625 -30.599609375 314.291992188 -79.25390625 c 1
 410.71875 -85.3818359375 430.098632812 -85.9404296875 451.459960938 -86.51171875 c 0
 469.528320312 -86.99609375 484.047851562 -101.81640625 484.047851562 -120 c 0
 484.047851562 -138.489257812 469.037109375 -153.5 450.547851562 -153.5 c 0
 428.43359375 -153.5 366.927734375 -149.662109375 293.916015625 -145.106445312 c 1
 280.381835938 -176.26171875 247.735351562 -233.5 190.547851562 -233.5 c 0
 147.225585938 -233.5 95.3515625 -197.779296875 95.3515625 -149.4921875 c 0
 95.3515625 -123.413085938 110.83984375 -100.5703125 133.9296875 -83.849609375 c 0
 144.573242188 -76.142578125 158.213867188 -73.40625 190.080078125 -73.40625 c 0
 206.055664062 -73.40625 225.264648438 -74.115234375 246.470703125 -75.2060546875 c 1
 253.395507812 -46.162109375 255.022460938 -17.4892578125 256.69140625 18.068359375 c 1
 236.309570312 6.1806640625 211.336914062 -0.5 182.547851562 -0.5 c 0
EndSplineSet
EndChar

StartChar: uni210B
Encoding: 4 8459 4
Width: 550
VWidth: 0
Flags: HW
LayerCount: 2
Fore
SplineSet
275.455078125 197.478515625 m 0
 274.141601562 197.478515625 270.875 197.512695312 270.829101562 197.512695312 c 0
 257.372070312 197.512695312 246.430664062 194.053710938 236.4453125 187.353515625 c 1
 225.893554688 140.20703125 211.349609375 96.2041015625 197.096679688 64.3466796875 c 0
 157.526367188 -24.1044921875 89.060546875 -8.099609375 71.61328125 30.5322265625 c 0
 68.470703125 37.4912109375 67.21875 44.759765625 67.21875 51.3779296875 c 0
 67.21875 76.00390625 81.7197265625 96.2373046875 104.231445312 126.212890625 c 0
 140.081054688 173.94921875 147.954101562 195.100585938 174.83984375 222.4921875 c 1
 181.0859375 254.525390625 185.108398438 286.840820312 185.108398438 314.7890625 c 0
 185.108398438 330.14453125 183.923828125 344.041015625 181.651367188 355.404296875 c 0
 177.506835938 376.123046875 157.692382812 399.634765625 138.421875 399.634765625 c 0
 124.10546875 399.634765625 92.5595703125 377.206054688 91.9921875 352.225585938 c 0
 91.5791015625 334.067382812 76.73046875 319.473632812 58.5 319.473632812 c 0
 40.0107421875 319.473632812 25 334.484375 25 352.973632812 c 0
 25 411.776367188 84.951171875 466.634765625 138.421875 466.634765625 c 0
 191.377929688 466.634765625 237.00390625 420.327148438 247.350585938 368.595703125 c 0
 250.75390625 351.579101562 252.108398438 333.533203125 252.108398438 314.7890625 c 0
 252.108398438 297.98046875 251.044921875 280.505859375 249.1328125 262.817382812 c 1
 255.987304688 263.920898438 263.208984375 264.512695312 270.829101562 264.512695312 c 0
 270.875 264.512695312 275.259765625 264.478515625 275.455078125 264.478515625 c 0
 291.255859375 264.478515625 304.215820312 266.626953125 315.166015625 270.237304688 c 1
 324.068359375 327.65625 332.365234375 368.072265625 342.693359375 392.171875 c 0
 358.287109375 428.557617188 358.9375 430.076171875 367.806640625 441.75390625 c 0
 376.28125 452.9140625 391.795898438 466.791015625 414.146484375 466.791015625 c 0
 435.528320312 466.791015625 475.360351562 452.395507812 475.360351562 394.299804688 c 0
 475.360351562 372.346679688 469.991210938 349.9140625 457.647460938 330.8359375 c 0
 455.370117188 327.317382812 452.127929688 321.46484375 448.287109375 314.400390625 c 0
 433.962890625 288.053710938 414.432617188 252.131835938 376.568359375 226.586914062 c 1
 369.743164062 175.686523438 365.000976562 123.365234375 365.000976562 92 c 0
 365.000976562 86.88671875 367.521484375 73.6884765625 373.576171875 66.5439453125 c 1
 399.4765625 67.2958984375 412.815429688 77.93359375 441.762695312 105.173828125 c 0
 449.970703125 112.8984375 459.200195312 121.600585938 469.959960938 130.6484375 c 0
 475.784179688 135.546875 483.298828125 138.499023438 491.497070312 138.499023438 c 0
 509.983398438 138.499023438 524.991210938 123.490234375 524.991210938 105.00390625 c 0
 524.991210938 94.716796875 520.342773438 85.505859375 513.041015625 79.3515625 c 0
 504.063476562 71.8017578125 495.868164062 64.1064453125 487.658203125 56.380859375 c 0
 457.462890625 27.96484375 427.21484375 -0.5 370.500976562 -0.5 c 0
 325.499023438 -0.5 298.000976562 49.7119140625 298.000976562 92 c 0
 298.000976562 120.626953125 300.973632812 159.231445312 305.624023438 199.635742188 c 1
 296.083984375 198.229492188 286.029296875 197.478515625 275.455078125 197.478515625 c 0
EndSplineSet
EndChar

StartChar: uni210C
Encoding: 5 8460 5
Width: 503
VWidth: 0
Flags: HW
LayerCount: 2
Fore
SplineSet
165.447265625 250.762695312 m 0
 165.447265625 284.521484375 158.7578125 307.583984375 158.7578125 333.389648438 c 0
 158.7578125 361.487304688 167.330078125 388.092773438 196.198242188 416.059570312 c 0
 218.127929688 437.302734375 254.262695312 466.595703125 298.66796875 466.595703125 c 0
 314.543945312 466.595703125 330.768554688 462.697265625 346.108398438 454.64453125 c 0
 356.71484375 449.081054688 364.00390625 437.885742188 364.00390625 425.001953125 c 0
 364.00390625 406.51171875 348.991210938 391.5 330.500976562 391.5 c 0
 315.879882812 391.5 313.045898438 399.595703125 298.66796875 399.595703125 c 0
 287.791992188 399.595703125 269.561523438 393.864257812 242.801757812 367.940429688 c 0
 227.860351562 353.466796875 225.7578125 344.6328125 225.7578125 333.389648438 c 0
 225.7578125 315.530273438 232.447265625 288.208007812 232.447265625 250.762695312 c 0
 232.447265625 247.682617188 232.40234375 244.53125 232.306640625 241.305664062 c 0
 241.5078125 240.9140625 250.874023438 240.575195312 260.311523438 240.234375 c 0
 344.176757812 237.2109375 412.88671875 234.099609375 454.29296875 201.259765625 c 0
 471.516601562 187.599609375 478.209960938 164.533203125 478.209960938 132.829101562 c 0
 478.209960938 59.39453125 436.581054688 -97.71875 353.346679688 -135.259765625 c 0
 337.934570312 -142.2109375 321.340820312 -145.228515625 304.45703125 -145.228515625 c 0
 279.294921875 -145.228515625 253.78515625 -139.18359375 224.45703125 -129.965820312 c 0
 210.859375 -125.692382812 200.989257812 -112.985351562 200.989257812 -97.9921875 c 0
 200.989257812 -79.4990234375 216.00390625 -64.4853515625 234.49609375 -64.4853515625 c 0
 245.857421875 -64.4853515625 276.606445312 -78.228515625 304.45703125 -78.228515625 c 0
 321.766601562 -78.228515625 334.442382812 -73.0673828125 350.270507812 -53.169921875 c 0
 385.912109375 -8.36328125 411.209960938 82.8193359375 411.209960938 132.829101562 c 0
 411.209960938 141.297851562 410.170898438 147.819335938 409.46484375 150.9921875 c 0
 380.595703125 168.852539062 316.309570312 171.170898438 257.858398438 173.279296875 c 0
 247.345703125 173.658203125 236.745117188 174.0390625 226.168945312 174.506835938 c 1
 217.809570312 101.630859375 207.04296875 50.857421875 181.481445312 22.8291015625 c 0
 168.595703125 8.69921875 149.79296875 -0.5 129.5 -0.5 c 0
 106.514648438 -0.5 85.7333984375 6.7353515625 70.5498046875 20.3896484375 c 0
 52.248046875 36.8486328125 44.8017578125 56.4501953125 37.4267578125 72.9111328125 c 0
 34.505859375 79.4287109375 31.63671875 85.8125 28.517578125 92.05078125 c 0
 26.2666015625 96.552734375 25 101.629882812 25 107.000976562 c 0
 25 125.4921875 40.01171875 140.50390625 58.5029296875 140.50390625 c 0
 71.150390625 140.50390625 82.7490234375 133.41796875 88.4833984375 121.94921875 c 0
 92.4072265625 114.1015625 95.6826171875 106.771484375 98.603515625 100.252929688 c 0
 106.413085938 82.8232421875 112.098632812 73.1162109375 115.323242188 70.2158203125 c 0
 117.361328125 68.3828125 119.172851562 66.5 129.5 66.5 c 0
 129.694335938 66.5 129.848632812 66.5 129.970703125 66.5 c 0
 132.088867188 66.5 139.640625 76.5927734375 146.2578125 102.291015625 c 0
 153.484375 130.352539062 158.893554688 172.627929688 164.16796875 225.3671875 c 0
 165.084960938 234.54296875 165.447265625 242.940429688 165.447265625 250.762695312 c 0
EndSplineSet
EndChar

StartChar: uni210D
Encoding: 6 8461 6
Width: 465
VWidth: 0
Flags: HW
LayerCount: 2
Fore
SplineSet
92 83.37109375 m 4
 92 55.8388671875 93.1083984375 33.009765625 93.1083984375 32.5009765625 c 4
 93.1083984375 14.0107421875 78.0966796875 -1 59.607421875 -1 c 4
 41.6201171875 -1 26.9248046875 13.20703125 26.138671875 31.0458984375 c 4
 25.3525390625 48.87109375 25 66.2724609375 25 83.37109375 c 4
 25 202.556640625 40.81640625 294.013671875 48.15234375 434.319335938 c 4
 49.0771484375 452.03515625 63.7138671875 466.095703125 81.607421875 466.095703125 c 4
 100.09765625 466.095703125 115.108398438 451.084960938 115.108398438 432.594726562 c 4
 115.108398438 416.284179688 108.509765625 334.385742188 103.508789062 278.276367188 c 4
 97.47265625 210.548828125 92 148.73828125 92 83.37109375 c 4
189.990234375 52.859375 m 0
 189.990234375 41.4033203125 190.107421875 33.72265625 190.107421875 32.9853515625 c 0
 190.107421875 14.49609375 175.096679688 -0.5146484375 156.607421875 -0.5146484375 c 0
 138.254882812 -0.5146484375 123.329101562 14.275390625 123.110351562 32.591796875 c 0
 123.029296875 39.3359375 122.990234375 46.0947265625 122.990234375 52.859375 c 0
 122.990234375 217.5234375 145.334960938 384.176757812 160.17578125 441.419921875 c 0
 163.908203125 455.8671875 177.022460938 466.529296875 192.607421875 466.529296875 c 0
 211.099609375 466.529296875 226.11328125 451.515625 226.11328125 433.0234375 c 0
 226.11328125 430.115234375 225.7421875 427.29296875 225.0390625 424.580078125 c 0
 218.526367188 399.462890625 208.819335938 338.958007812 201.270507812 263.7890625 c 1
 223.572265625 258.10546875 243.90625 256.108398438 264.262695312 256.108398438 c 0
 282.9609375 256.108398438 289.165039062 256.108398438 355.436523438 264.6640625 c 1
 369.685546875 393.352539062 369.685546875 393.352539062 373.224609375 435.814453125 c 0
 374.657226562 453.053710938 389.068359375 466.565429688 406.611328125 466.565429688 c 0
 425.1015625 466.565429688 440.112304688 451.553710938 440.112304688 433.064453125 c 0
 440.112304688 420.963867188 429.145507812 320.645507812 425.5234375 288.461914062 c 0
 416.129882812 204.97265625 407.380859375 127.040039062 406.104492188 32.5390625 c 0
 405.857421875 14.26171875 390.942382812 -0.5 372.607421875 -0.5 c 0
 354.118164062 -0.5 339.107421875 14.5107421875 339.107421875 33 c 0
 339.107421875 53.1982421875 340.650390625 114.860351562 348.319335938 196.155273438 c 1
 321.225585938 192.596679688 293.818359375 189.108398438 264.262695312 189.108398438 c 0
 242.426757812 189.108398438 219.587890625 191.110351562 195.4609375 196.34375 c 1
 192.13671875 150.064453125 189.990234375 100.98828125 189.990234375 52.859375 c 0
EndSplineSet
EndChar

StartChar: uni210E
Encoding: 7 8462 7
Width: 334
Flags: W
HStem: 0 21G<49.5 66 258 276> 231 69<166.521 231.104> 447 20G<98 116>
VStem: 25 65<3.2926 76.5925> 71 67<279 462.717> 234 66<3.12434 158.336> 242 67<21.6906 230.425>
LayerCount: 2
Fore
SplineSet
234 34 m 4xe4
 234 48 236 72 238 96 c 4
 240 120 242 145 242 159 c 4
 242 191 236 213 222 231 c 5
 221 231 l 6
 217 233 215 233 212 233 c 4
 196 232 177 226 166 218 c 5
 153 199 138 166 123 124 c 4
 116 95 105 61 90 21 c 4
 85 9 73 0 59 0 c 4
 40 0 25 15 25 33 c 4xf2
 25 40 33 65 42 91 c 4
 49 111 56 131 59 145 c 4
 68 193 71 230 71 310 c 4
 71 359 72 390 74 436 c 4
 75 454 89 467 107 467 c 4
 125 467 141 451 141 433 c 6
 141 432 l 6
 139 407 138 365 138 309 c 6
 138 279 l 5
 163 293 188 300 212 300 c 4
 273 300 309 247 309 159 c 4xea
 309 149 303 64 300 36 c 6
 300 32 l 6
 299 14 285 0 267 0 c 4
 249 0 234 16 234 34 c 4xe4
EndSplineSet
EndChar

StartChar: uni210F
Encoding: 8 8463 8
Width: 389
VWidth: 0
Flags: HW
LayerCount: 2
Fore
SplineSet
84.61328125 323.85546875 m 2
 84.32421875 323.85546875 75.9091796875 311.336914062 58.4951171875 311.336914062 c 0
 40.0087890625 311.336914062 25 326.345703125 25 344.83203125 c 0
 25 362.237304688 40.755859375 386.469726562 92.2412109375 396.194335938 c 0
 103.208007812 398.265625 115.01953125 399.618164062 127.163085938 400.549804688 c 1
 127.563476562 411.684570312 128.040039062 423.267578125 128.59375 436 c 0
 129.59375 454 143.59375 467 161.59375 467 c 0
 179.59375 467 195.59375 451 195.59375 433 c 2
 195.59375 432 l 2
 194.961914062 424.099609375 194.4296875 414.5 193.997070312 403.298828125 c 1
 219.047851562 404.168945312 241.264648438 405.645507812 255.506835938 410.729492188 c 1
 258.278320312 426.432617188 272.00390625 438.377929688 288.497070312 438.377929688 c 0
 303.606445312 438.377929688 322.033203125 427.192382812 322.033203125 403.48046875 c 0
 322.033203125 392.677734375 318.548828125 366.249023438 286.59375 351 c 0
 262.705078125 339.599609375 228.01171875 337.283203125 192.678710938 336.130859375 c 1
 192.622070312 327.495117188 192.59375 318.446289062 192.59375 309 c 2
 192.59375 279 l 1
 217.59375 293 242.59375 300 266.59375 300 c 0
 327.59375 300 363.59375 247 363.59375 159 c 0
 363.59375 149 357.59375 64 354.59375 36 c 2
 354.59375 32 l 2
 353.59375 14 339.59375 0 321.59375 0 c 0
 303.59375 0 288.59375 16 288.59375 34 c 0
 288.59375 48 290.59375 72 292.59375 96 c 0
 294.59375 120 296.59375 145 296.59375 159 c 0
 296.59375 191 290.59375 213 276.59375 231 c 1
 275.59375 231 l 2
 271.59375 233 269.59375 233 266.59375 233 c 0
 250.59375 232 231.59375 226 220.59375 218 c 1
 207.59375 199 192.59375 166 177.59375 124 c 0
 170.59375 95 159.59375 61 144.59375 21 c 0
 139.59375 9 127.59375 0 113.59375 0 c 0
 94.59375 0 79.59375 15 79.59375 33 c 0
 79.59375 40 87.59375 65 96.59375 91 c 0
 103.59375 111 110.59375 131 113.59375 145 c 0
 122.59375 193 125.59375 230 125.59375 310 c 0
 125.59375 318.174804688 125.622070312 325.848632812 125.677734375 333.173828125 c 1
 120.6796875 332.705078125 115.830078125 332.13671875 111.166015625 331.440429688 c 0
 96.5029296875 329.25 86.8427734375 325.344726562 84.7333984375 323.854492188 c 2
 84.61328125 323.85546875 l 2
EndSplineSet
EndChar

StartChar: uni2110
Encoding: 9 8464 9
Width: 676
VWidth: 0
Flags: HW
LayerCount: 2
Fore
SplineSet
93.845703125 73.806640625 m 1
 123.076171875 68.0498046875 158.291015625 66.888671875 176.673828125 66.888671875 c 0
 199.069335938 66.888671875 283.89453125 68.8935546875 318.369140625 98.443359375 c 0
 355.486328125 130.2578125 373.49609375 212.758789062 390.526367188 290.76953125 c 0
 398.3203125 326.473632812 406.2890625 363.287109375 416.680664062 398.505859375 c 1
 408.908203125 398.798828125 401.073242188 398.965820312 393.193359375 398.965820312 c 0
 343.694335938 398.965820312 292.79296875 392.432617188 244.407226562 370.486328125 c 1
 242.215820312 362.995117188 241.3203125 352.17578125 241.3203125 343.361328125 c 0
 241.3203125 333.278320312 242.692382812 323.125 243.6953125 319.041992188 c 0
 247.444335938 313.6328125 249.641601562 307.068359375 249.641601562 299.995117188 c 0
 249.641601562 281.509765625 234.633789062 266.501953125 216.147460938 266.501953125 c 0
 199.46875 266.501953125 174.3203125 277.43359375 174.3203125 343.361328125 c 0
 174.3203125 366.16015625 177.274414062 412.622070312 209.65625 428.205078125 c 0
 271.884765625 458.153320312 335.661132812 465.965820312 393.193359375 465.965820312 c 0
 461.583984375 465.965820312 523.837890625 454.822265625 564.696289062 454.822265625 c 0
 584.90234375 454.822265625 595.381835938 458.5859375 597.478515625 460.110351562 c 0
 603.002929688 464.127929688 609.801757812 466.499023438 617.150390625 466.499023438 c 0
 635.63671875 466.499023438 650.646484375 451.490234375 650.646484375 433.002929688 c 0
 650.646484375 421.864257812 645.197265625 411.987304688 636.826171875 405.889648438 c 0
 614.794921875 389.8671875 589.311523438 387.822265625 564.696289062 387.822265625 c 0
 543.9453125 387.822265625 528.8046875 389.274414062 485.247070312 393.453125 c 1
 459.321289062 312.551757812 447.768554688 213.002929688 418.6796875 136.408203125 c 0
 388.40234375 56.68359375 349.635742188 27.607421875 285.779296875 11.68359375 c 0
 209.5078125 -7.3369140625 96.5634765625 -1.3642578125 52.142578125 15.720703125 c 0
 42.0908203125 19.5869140625 25 30.771484375 25 62.1376953125 c 0
 25 85.0224609375 35.302734375 127.663085938 63.298828125 145.344726562 c 0
 103.459960938 170.709960938 141.5546875 172.495117188 174.15234375 174.146484375 c 0
 194.7421875 175.189453125 208.869140625 176.506835938 209.220703125 176.506835938 c 0
 227.7109375 176.506835938 242.72265625 161.495117188 242.72265625 143.004882812 c 0
 242.72265625 125.698242188 229.571289062 111.438476562 212.657226562 109.681640625 c 0
 199.883789062 108.350585938 188.196289062 107.770507812 177.590820312 107.233398438 c 0
 144.674804688 105.56640625 124.630859375 104.412109375 100.372070312 89.505859375 c 0
 98.294921875 86.46875 95.7548828125 81.5166015625 93.845703125 73.806640625 c 1
EndSplineSet
EndChar

StartChar: Ifraktur
Encoding: 10 8465 10
Width: 530
VWidth: 0
Flags: HW
LayerCount: 2
Fore
SplineSet
152.34375 255.553710938 m 0
 152.34375 250.4453125 153 213.42578125 153 213 c 0
 153 194.510742188 137.989257812 179.5 119.5 179.5 c 0
 101.010742188 179.5 86 194.510742188 86 213 c 0
 86 223.081054688 85.34375 238.532226562 85.34375 255.553710938 c 0
 85.34375 296.271484375 87.48828125 373.134765625 141.780273438 397.56640625 c 0
 160.561523438 406.017578125 179.254882812 409.791992188 196.953125 409.791992188 c 0
 259.802734375 409.791992188 303.645507812 364.65234375 332.747070312 364.65234375 c 0
 356.70703125 364.65234375 382.931640625 395.1953125 400.336914062 415.466796875 c 0
 420.1171875 438.50390625 437.814453125 459.116210938 463.38671875 465.508789062 c 0
 465.994140625 466.161132812 468.720703125 466.506835938 471.528320312 466.506835938 c 0
 490.020507812 466.506835938 505.034179688 451.493164062 505.034179688 433.000976562 c 0
 505.034179688 417.315429688 494.233398438 404.1328125 479.639648438 400.497070312 c 0
 476.052734375 399.559570312 466.58203125 389.7890625 451.186523438 371.857421875 c 0
 426.77734375 343.428710938 387.473632812 297.65234375 332.747070312 297.65234375 c 0
 280.23828125 297.65234375 238.766601562 342.791992188 196.953125 342.791992188 c 0
 188.692382812 342.791992188 179.889648438 341.234375 169.219726562 336.43359375 c 0
 167.666992188 335.734375 152.34375 327.029296875 152.34375 255.553710938 c 0
320.057617188 266.783203125 m 0
 320.3359375 266.751953125 328.693359375 278.490234375 345.504882812 278.490234375 c 0
 363.990234375 278.490234375 378.999023438 263.482421875 378.999023438 244.99609375 c 0
 378.999023438 231.37890625 374.64453125 226.676757812 352.392578125 202.645507812 c 0
 332.69140625 181.370117188 310.965820312 157.908203125 310.965820312 132.342773438 c 0
 310.965820312 109.358398438 357.55078125 47.994140625 357.55078125 -12.7958984375 c 0
 357.55078125 -38.28125 349.026367188 -65.328125 328.48046875 -88.3115234375 c 0
 296.956054688 -123.577148438 254.32421875 -139.041015625 212.282226562 -139.041015625 c 0
 139.522460938 -139.041015625 65.490234375 -95.2978515625 28.9208984375 -26.73046875 c 0
 26.4189453125 -22.0380859375 25 -16.68359375 25 -10.9990234375 c 0
 25 7.4912109375 40.01171875 22.5029296875 58.501953125 22.5029296875 c 0
 70.8125 22.5029296875 82.1826171875 15.7861328125 88.080078125 4.73046875 c 0
 112.637695312 -41.3154296875 165.833007812 -72.041015625 212.282226562 -72.041015625 c 0
 238.248046875 -72.041015625 261.016601562 -63.2685546875 278.51953125 -43.6884765625 c 0
 287.94140625 -33.1484375 290.55078125 -24.0927734375 290.55078125 -12.7958984375 c 0
 290.55078125 31.1005859375 243.965820312 85.2236328125 243.965820312 132.342773438 c 0
 243.965820312 184.146484375 277.000976562 219.821289062 303.227539062 248.14453125 c 0
 309.15625 254.547851562 314.845703125 260.703125 320.057617188 266.783203125 c 0
EndSplineSet
EndChar

StartChar: uni2112
Encoding: 11 8466 11
Width: 527
VWidth: 0
Flags: HW
LayerCount: 2
Fore
SplineSet
92 78.837890625 m 0
 92 72.84375 92.599609375 68.7919921875 93.1201171875 66.48046875 c 0
 94.0576171875 66.412109375 95.337890625 66.361328125 97.076171875 66.361328125 c 0
 97.533203125 66.361328125 123.505859375 66.5322265625 142.32421875 72.548828125 c 1
 128.240234375 79.025390625 109.486328125 86.3583984375 92.4013671875 88.7568359375 c 1
 92.1220703125 85.01953125 92 81.7099609375 92 78.837890625 c 0
314.477539062 394.909179688 m 1
 303.583007812 389.014648438 294.982421875 379.331054688 294.72265625 377.834960938 c 0
 294.627929688 377.602539062 290.7265625 367.879882812 286.85546875 339.8984375 c 1
 287.103515625 339.990234375 303.556640625 346.290039062 309.791015625 353.126953125 c 1
 312.870117188 365.807617188 314.563476562 379.840820312 314.563476562 390.888671875 c 0
 314.563476562 392.313476562 314.532226562 393.654296875 314.477539062 394.909179688 c 1
188.453125 124.8125 m 1
 200.936523438 164.186523438 205.997070312 208.7578125 211.588867188 266.155273438 c 1
 202.799804688 268.250976562 110.038085938 293.115234375 57.1123046875 420.137695312 c 0
 55.431640625 424.14453125 54.51953125 428.490234375 54.51953125 433.046875 c 0
 54.51953125 451.5390625 69.533203125 466.551757812 88.025390625 466.551757812 c 0
 101.959960938 466.551757812 113.919921875 458.026367188 118.98828125 445.862304688 c 0
 140.392578125 394.4921875 176.224609375 352.224609375 218.591796875 334.4921875 c 1
 224.624023438 384.510742188 230.807617188 403.247070312 239.309570312 415.77734375 c 0
 256.12109375 440.551757812 292.228515625 466.32421875 325.637695312 466.32421875 c 0
 345.279296875 466.32421875 381.563476562 457.33203125 381.563476562 390.888671875 c 0
 381.563476562 373.061523438 379.120117188 354.129882812 374.552734375 335.860351562 c 0
 370.310546875 318.891601562 357.202148438 298.001953125 321.887695312 281.90234375 c 0
 308.254882812 275.6875 293.65234375 271.069335938 279.087890625 268.0234375 c 1
 273.672851562 211.690429688 266.959960938 141.845703125 248.72265625 93.4501953125 c 1
 269.9609375 82.81640625 304.7265625 66.234375 331.801757812 66.234375 c 0
 338.653320312 66.234375 382.690429688 69.5361328125 412.991210938 81.951171875 c 0
 428.997070312 88.5087890625 436.44921875 95.9248046875 438.482421875 99.7529296875 c 0
 444.112304688 110.349609375 455.263671875 117.572265625 468.08984375 117.572265625 c 0
 486.580078125 117.572265625 501.591796875 102.560546875 501.591796875 84.0703125 c 0
 501.591796875 65.52734375 476.19921875 9.6416015625 341.57421875 -0.40625 c 0
 338.306640625 -0.650390625 335.047851562 -0.765625 331.801757812 -0.765625 c 0
 294.603515625 -0.765625 256.84765625 13.927734375 212.057617188 36.8671875 c 1
 181.17578125 8.451171875 143.327148438 2.513671875 118.368164062 0.49609375 c 0
 111.95703125 -0.0224609375 104.912109375 -0.638671875 97.076171875 -0.638671875 c 0
 67.9599609375 -0.638671875 25 10.8779296875 25 78.837890625 c 0
 25 104.3515625 29.08203125 121.762695312 40.9931640625 135.806640625 c 0
 54.51953125 151.755859375 73.6689453125 156.112304688 88.3759765625 156.112304688 c 0
 118.013671875 156.112304688 155.376953125 141.493164062 188.453125 124.8125 c 1
EndSplineSet
EndChar

StartChar: uni2113
Encoding: 12 8467 12
Width: 270
VWidth: 0
Flags: HW
LayerCount: 2
Fore
SplineSet
115.668945312 247.44140625 m 1
 114.8203125 252.247070312 101.890625 326.686523438 101.890625 385.536132812 c 0
 101.890625 399.185546875 101.890625 441.947265625 138.034179688 459.7890625 c 0
 148.114257812 464.765625 158.922851562 466.62109375 169.622070312 466.62109375 c 0
 215.0234375 466.62109375 244.985351562 432.434570312 244.985351562 392.724609375 c 0
 244.985351562 383.28125 243.315429688 373.864257812 240.05859375 364.744140625 c 0
 222.370117188 315.21484375 205.146484375 274.979492188 185.787109375 237.192382812 c 1
 197.688476562 177.860351562 213.455078125 124.430664062 237.63671875 42.4814453125 c 0
 238.524414062 39.47265625 239.000976562 36.2890625 239.000976562 32.994140625 c 0
 239.000976562 14.501953125 223.987304688 -0.51171875 205.494140625 -0.51171875 c 0
 190.295898438 -0.51171875 177.447265625 9.62890625 173.36328125 23.515625 c 0
 155.193359375 85.08984375 146.369140625 114.994140625 136.736328125 152.166015625 c 1
 121.686523438 128.436523438 105.034179688 103.630859375 86.1044921875 76.025390625 c 0
 80.1044921875 67.28515625 69.970703125 61.50390625 58.4970703125 61.50390625 c 0
 40.009765625 61.50390625 25 76.513671875 25 95.001953125 c 0
 25 102.015625 27.16015625 108.529296875 30.8515625 113.912109375 c 0
 66.74609375 166.258789062 93.173828125 206.337890625 115.668945312 247.44140625 c 1
169.50390625 366.889648438 m 1
 176.185546875 384.768554688 177.985351562 389.583984375 177.985351562 392.724609375 c 0
 177.985351562 398.900390625 174.034179688 399.6171875 170.086914062 399.6171875 c 0
 169.530273438 396.765625 168.890625 391.946289062 168.890625 385.536132812 c 0
 168.890625 384.743164062 168.890625 379.844726562 169.50390625 366.889648438 c 1
EndSplineSet
EndChar

StartChar: uni2115
Encoding: 13 8469 13
Width: 456
VWidth: 0
Flags: HW
LayerCount: 2
Fore
SplineSet
44.5771484375 366.49609375 m 0
 44.5771484375 405.077148438 42.203125 429.34375 42.203125 433 c 0
 42.203125 451.490234375 57.21484375 466.500976562 75.7041015625 466.500976562 c 0
 93.37109375 466.500976562 107.862304688 452.796875 109.1171875 435.448242188 c 0
 110.849609375 411.508789062 111.577148438 388.591796875 111.577148438 366.49609375 c 0
 111.577148438 251.606445312 92 159.236328125 92 52.21875 c 0
 92 46.109375 92.0634765625 39.951171875 92.197265625 33.7353515625 c 2
 92.197265625 33.7099609375 l 2
 92.203125 33.4658203125 92.2060546875 33.220703125 92.2060546875 32.974609375 c 0
 92.2060546875 14.4853515625 77.1953125 -0.525390625 58.7060546875 -0.525390625 c 0
 40.462890625 -0.525390625 25.60546875 14.0888671875 25.2138671875 32.2646484375 c 0
 25.068359375 38.986328125 25 45.6357421875 25 52.21875 c 0
 25 163.799804688 44.5771484375 255.955078125 44.5771484375 366.49609375 c 0
199.80078125 55.62890625 m 0
 199.80078125 41.8525390625 200.206054688 34.705078125 200.206054688 33 c 0
 200.206054688 14.5107421875 185.1953125 -0.5 166.706054688 -0.5 c 0
 148.654296875 -0.5 133.918945312 13.8076171875 133.23046875 31.6923828125 c 0
 132.936523438 39.34375 132.80078125 47.3349609375 132.80078125 55.62890625 c 0
 132.80078125 195.750976562 171.091796875 435.696289062 171.833007812 439.482421875 c 0
 174.95703125 455.444335938 188.987304688 466.52734375 204.686523438 466.52734375 c 0
 213.3984375 466.52734375 238.099609375 461.090820312 260.084960938 433.91015625 c 0
 289.26953125 397.831054688 306.158203125 335.41796875 320.889648438 244.793945312 c 1
 332.15234375 311.696289062 347.018554688 383.759765625 365.755859375 443.09375 c 0
 370.040039062 456.662109375 382.736328125 466.51171875 397.713867188 466.51171875 c 0
 416.20703125 466.51171875 431.220703125 451.498046875 431.220703125 433.004882812 c 0
 431.220703125 429.490234375 430.677734375 426.100585938 429.658203125 422.913085938 c 0
 383.28125 276.052734375 360.041015625 29.8701171875 360.041015625 29.8701171875 c 1
 358.458984375 12.80859375 344.118164062 -0.462890625 326.677734375 -0.462890625 c 0
 312.779296875 -0.462890625 300.439453125 8.1171875 295.4765625 20.859375 c 0
 266.036132812 96.4501953125 259.970703125 263.956054688 227.072265625 354.245117188 c 1
 215.837890625 272.673828125 199.80078125 141.234375 199.80078125 55.62890625 c 0
EndSplineSet
EndChar

StartChar: weierstrass
Encoding: 14 8472 14
Width: 481
VWidth: 0
Flags: HW
LayerCount: 2
Fore
SplineSet
133.360351562 -164.103515625 m 1
 150.455078125 -149.365234375 173.63671875 -106.517578125 173.63671875 -62.939453125 c 0
 173.63671875 -25.974609375 158.046875 -6.1591796875 147.32421875 4.5673828125 c 1
 141.641601562 -9.9736328125 128.387695312 -44.54296875 128.196289062 -45.0390625 c 0
 125.653320312 -51.6318359375 121.43359375 -75.654296875 121.43359375 -99.7744140625 c 0
 121.43359375 -110.088867188 122.250976562 -146.403320312 133.360351562 -164.103515625 c 1
133.928710938 -233.5 m 0
 97.455078125 -233.5 54.43359375 -203.099609375 54.43359375 -99.7744140625 c 0
 54.43359375 -69.2666015625 57.6689453125 -41.677734375 65.66015625 -20.9609375 c 0
 65.9033203125 -20.33203125 84.0703125 27.0869140625 89.9130859375 41.994140625 c 1
 61.1220703125 56.8828125 32.7646484375 71.5478515625 27.8388671875 102.743164062 c 0
 25.955078125 114.676757812 25 126.771484375 25 138.931640625 c 0
 25 215.551757812 63.5390625 293.245117188 142.466796875 341.588867188 c 0
 147.624023438 344.74609375 153.603515625 346.541992188 160 346.541992188 c 0
 178.48828125 346.541992188 193.499023438 331.53125 193.499023438 313.04296875 c 0
 193.499023438 300.950195312 187.077148438 290.344726562 177.389648438 284.411132812 c 0
 118.2265625 248.173828125 92 193.0390625 92 138.931640625 c 0
 92 131.690429688 92.48046875 124.440429688 93.4375 117.245117188 c 0
 97.455078125 114.038085938 102.80859375 110.836914062 115.706054688 104.102539062 c 1
 152.625 186.534179688 216.12890625 300.5 338.928710938 300.5 c 0
 381.9140625 300.5 455.645507812 285.737304688 455.645507812 184.456054688 c 0
 455.645507812 93.455078125 411.37890625 -0.5 336.928710938 -0.5 c 0
 278.060546875 -0.5 260.190429688 55.150390625 248.875976562 90.38671875 c 0
 246.650390625 97.3203125 244.556640625 103.80078125 242.482421875 109.432617188 c 0
 241.153320312 113.0390625 240.427734375 116.936523438 240.427734375 121.001953125 c 0
 240.427734375 139.494140625 255.44140625 154.5078125 273.93359375 154.5078125 c 0
 288.361328125 154.5078125 300.669921875 145.370117188 305.374023438 132.567382812 c 0
 311.986328125 114.620117188 317.600585938 93.1015625 324.1640625 79.5087890625 c 0
 330.444335938 66.5 333.935546875 66.5 336.928710938 66.5 c 0
 361.501953125 66.5 388.645507812 123.411132812 388.645507812 184.456054688 c 0
 388.645507812 201.534179688 385.389648438 213.16015625 381.297851562 219.278320312 c 0
 377.131835938 225.5078125 368.94921875 233.5 338.928710938 233.5 c 0
 269.739257812 233.5 222.651367188 179.91796875 174.073242188 69.6318359375 c 1
 199.138671875 50.744140625 240.63671875 11.787109375 240.63671875 -62.939453125 c 0
 240.63671875 -147.484375 185.227539062 -233.5 133.928710938 -233.5 c 0
EndSplineSet
EndChar

StartChar: uni2119
Encoding: 15 8473 15
Width: 432
VWidth: 0
Flags: HW
LayerCount: 2
Fore
SplineSet
41.546875 390.280273438 m 4
 41.546875 413.288085938 40.9033203125 433.107421875 40.9033203125 433.540039062 c 4
 40.9033203125 452.029296875 55.9150390625 467.041015625 74.404296875 467.041015625 c 4
 92.560546875 467.041015625 107.362304688 452.565429688 107.889648438 434.536132812 c 4
 108.342773438 419.051757812 108.546875 404.338867188 108.546875 390.280273438 c 4
 108.546875 263.596679688 92 192.08984375 92 80.1845703125 c 4
 92 65.853515625 92.2685546875 50.814453125 92.87890625 34.83984375 c 6
 92.87890625 34.7998046875 l 6
 92.8955078125 34.369140625 92.9052734375 33.935546875 92.9052734375 33.5 c 4
 92.9052734375 15.0107421875 77.89453125 0 59.4052734375 0 c 4
 41.3505859375 0 26.61328125 14.3125 25.9287109375 32.2412109375 c 4
 25.28515625 49.0791015625 25 64.9970703125 25 80.1845703125 c 4
 25 196.170898438 41.546875 267.041015625 41.546875 390.280273438 c 4
271.526367188 466.724609375 m 0
 350.241210938 466.724609375 406.9296875 420.333984375 406.9296875 355.943359375 c 0
 406.9296875 311.000976562 396.142578125 235.34375 329.91796875 194.354492188 c 0
 293.926757812 172.079101562 249.861328125 163.772460938 199.61328125 162.623046875 c 1
 197.872070312 134.104492188 196.825195312 108.422851562 196.825195312 87.30078125 c 0
 196.825195312 64.9306640625 198.374023438 47.5146484375 199.984375 40.8271484375 c 0
 200.591796875 38.3056640625 200.913085938 35.673828125 200.913085938 32.9677734375 c 0
 200.913085938 14.474609375 185.899414062 -0.5390625 167.407226562 -0.5390625 c 0
 151.620117188 -0.5390625 138.369140625 10.40234375 134.833984375 25.142578125 c 0
 130.703125 42.298828125 129.825195312 62.404296875 129.825195312 87.30078125 c 0
 129.825195312 161.012695312 140.801757812 275.135742188 150.765625 380.060546875 c 0
 152.583007812 399.196289062 154.368164062 417.994140625 156.049804688 436.125976562 c 0
 157.630859375 453.219726562 171.973632812 466.568359375 189.409179688 466.568359375 c 0
 198.118164062 466.568359375 206.0546875 463.23828125 212.015625 457.783203125 c 1
 231.830078125 463.818359375 251.947265625 466.724609375 271.526367188 466.724609375 c 0
218.9375 389.18359375 m 1
 212.306640625 319.243164062 208.30859375 277.079101562 204.475585938 229.833007812 c 1
 222.64453125 230.583984375 238.688476562 232.5234375 252.651367188 235.544921875 c 1
 253.280273438 249.270507812 262.750976562 397.788085938 262.833984375 399.427734375 c 1
 248.537109375 398.4609375 233.438476562 395.119140625 218.9375 389.18359375 c 1
322.234375 279.0703125 m 1
 325.880859375 285.237304688 339.9296875 311.85546875 339.9296875 355.943359375 c 0
 339.9296875 363.150390625 338.498046875 372.377929688 328.9609375 381.381835938 c 1
 327.63671875 358.236328125 322.299804688 280.09375 322.234375 279.0703125 c 1
EndSplineSet
EndChar

StartChar: uni211A
Encoding: 16 8474 16
Width: 440
VWidth: 0
Flags: HW
LayerCount: 2
Fore
SplineSet
270.767578125 379.522460938 m 1
 250.3359375 397.234375 231.716796875 399.663085938 218.984375 399.663085938 c 0
 208.5625 399.663085938 198.905273438 397.948242188 189.8203125 394.627929688 c 1
 187.08203125 362.478515625 183.833984375 328.0546875 180.548828125 293.2265625 c 0
 173.23046875 215.64453125 165.736328125 135.78125 163.267578125 76.0986328125 c 1
 173.178710938 70.5888671875 185.359375 66.328125 199.322265625 66.328125 c 0
 215.6171875 66.328125 232.280273438 72.259765625 248.576171875 83.9365234375 c 1
 247.749023438 88.583984375 246.986328125 93.2197265625 246.286132812 97.84375 c 0
 234.353515625 107.3828125 220.970703125 117.006835938 203.90234375 127.4375 c 0
 194.341796875 133.28125 187.907226562 143.895507812 187.907226562 156 c 0
 187.907226562 174.489257812 202.91796875 189.5 221.40625 189.5 c 0
 224.588867188 189.5 230.88671875 189.5 240.090820312 183.838867188 c 1
 240.4375 251.765625 252.747070312 316.633789062 270.767578125 379.522460938 c 1
218.984375 466.663085938 m 0
 329.081054688 466.663085938 393.12890625 346.03515625 393.12890625 240.85546875 c 0
 393.12890625 208.58203125 386.120117188 155.2109375 349.447265625 96.939453125 c 1
 363.194335938 85.478515625 378.404296875 74.09375 398.91015625 61.5625 c 0
 408.54296875 55.6767578125 414.9765625 45.0625 414.9765625 32.95703125 c 0
 414.9765625 14.4677734375 399.966796875 -0.5419921875 381.477539062 -0.5419921875 c 0
 375.09375 -0.5419921875 369.125 1.2470703125 363.973632812 4.3935546875 c 0
 340.692382812 18.62109375 322.512695312 32.2900390625 306.916015625 45.23828125 c 1
 290.013671875 29.7001953125 251.93359375 -0.671875 199.322265625 -0.671875 c 0
 98.05859375 -0.671875 25 110.848632812 25 211.678710938 c 0
 25 239.41015625 32.8681640625 295.412109375 58.5390625 348.969726562 c 0
 78.015625 389.603515625 127.068359375 466.663085938 218.984375 466.663085938 c 0
114.9375 311.1484375 m 1
 114.533203125 310.2109375 92 257.298828125 92 211.678710938 c 0
 92 194.674804688 95.248046875 176.1328125 101.26171875 158.288085938 c 1
 103.43359375 186.32421875 104.622070312 201.67578125 114.9375 311.1484375 c 1
307.512695312 160.157226562 m 1
 320.103515625 188.038085938 326.12890625 214.670898438 326.12890625 240.85546875 c 0
 326.12890625 258.288085938 323.649414062 276.845703125 318.961914062 294.779296875 c 1
 311.443359375 257.05078125 307.083007812 219.211914062 307.083007812 180.899414062 c 0
 307.083007812 174.0078125 307.223632812 167.094726562 307.512695312 160.157226562 c 1
EndSplineSet
EndChar

StartChar: uni211B
Encoding: 17 8475 17
Width: 613
VWidth: 0
Flags: HW
LayerCount: 2
Fore
SplineSet
92.390625 112 m 0
 92.390625 111.877929688 92 104.3828125 92 99.79296875 c 0
 92 94.4794921875 92.3466796875 78.54296875 96.2626953125 67.841796875 c 1
 113.751953125 75.2900390625 132.143554688 105.5703125 141.999023438 128.9765625 c 0
 159.229492188 169.900390625 180.838867188 200.618164062 187.178710938 229.26171875 c 0
 196.657226562 272.083007812 193.783203125 322.689453125 206.102539062 378.491210938 c 1
 199.03125 373.901367188 179.787109375 360.762695312 163.813476562 343.6015625 c 0
 159.916992188 339.415039062 149.620117188 328.352539062 146.083007812 316.563476562 c 0
 146.2890625 315.102539062 146.396484375 313.564453125 146.396484375 312.000976562 c 0
 146.396484375 293.508789062 131.383789062 278.497070312 112.892578125 278.497070312 c 0
 105.1796875 278.497070312 79.0517578125 282.83203125 79.0517578125 316.459960938 c 0
 79.0517578125 373.465820312 154.764648438 429.982421875 199.38671875 451.608398438 c 0
 216.672851562 459.986328125 233.655273438 466.5 252.888671875 466.5 c 0
 352.135742188 466.5 419.497070312 461.252929688 443.306640625 402.651367188 c 0
 449.310546875 387.873046875 452.397460938 370.672851562 452.397460938 344.09375 c 0
 452.397460938 212.751953125 342.63671875 212.751953125 290.776367188 212.751953125 c 0
 280.263671875 212.751953125 269.6640625 212.94921875 259.043945312 213.145507812 c 1
 300.208984375 167.151367188 333.133789062 120.771484375 362.3046875 93.1875 c 0
 382.963867188 73.6513671875 398.250976562 66.5 412.888671875 66.5 c 0
 443.5390625 66.5 472.078125 126.046875 532.845703125 179.217773438 c 0
 538.737304688 184.373046875 546.448242188 187.498046875 554.884765625 187.498046875 c 0
 573.370117188 187.498046875 588.37890625 172.490234375 588.37890625 154.004882812 c 0
 588.37890625 143.955078125 583.943359375 134.932617188 576.931640625 128.782226562 c 0
 537.595703125 94.36328125 513.684570312 55.9384765625 483.591796875 29.2646484375 c 0
 465.629882812 13.341796875 442.213867188 -0.5 412.888671875 -0.5 c 0
 348.334960938 -0.5 305.428710938 52.1435546875 255.528320312 113.369140625 c 0
 246.064453125 124.98046875 236.338867188 136.905273438 226.155273438 148.900390625 c 1
 216.296875 129.901367188 209.924804688 117.619140625 203.778320312 103.0234375 c 0
 190.807617188 72.2158203125 153.552734375 -0.5 90.888671875 -0.5 c 0
 69.0927734375 -0.5 25 13.64453125 25 99.79296875 c 0
 25 104.793945312 25.1640625 109.612304688 25.458984375 114.185546875 c 0
 26.5859375 131.658203125 41.1337890625 145.500976562 58.8896484375 145.500976562 c 0
 77.3798828125 145.500976562 92.390625 130.489257812 92.390625 112 c 0
290.776367188 279.751953125 m 0
 362.573242188 279.751953125 373.037109375 293.818359375 378.940429688 306.383789062 c 0
 382.458007812 313.870117188 385.397460938 325.844726562 385.397460938 344.09375 c 0
 385.397460938 381.05078125 377.998046875 385.271484375 366.8515625 389.486328125 c 0
 348.012695312 396.610351562 314.197265625 398.6015625 281.87109375 399.239257812 c 1
 268.06640625 362.35546875 265.008789062 326.669921875 261.99609375 288.850585938 c 0
 261.765625 285.950195312 261.53515625 283.0390625 261.298828125 280.116210938 c 1
 271.5546875 279.926757812 281.42578125 279.751953125 290.776367188 279.751953125 c 0
EndSplineSet
EndChar

StartChar: Rfraktur
Encoding: 18 8476 18
Width: 578
VWidth: 0
Flags: HW
LayerCount: 2
Fore
SplineSet
92 255.159179688 m 0
 92 236.54296875 94.55859375 214.413085938 94.55859375 214 c 0
 94.55859375 195.509765625 79.5458984375 180.497070312 61.0556640625 180.497070312 c 0
 43.970703125 180.497070312 29.8564453125 193.3125 27.8076171875 209.846679688 c 0
 25.9169921875 225.108398438 25 240.263671875 25 255.159179688 c 0
 25 374.7265625 82.61328125 466.5 165.052734375 466.5 c 0
 190.01171875 466.5 211.490234375 455.381835938 226.98828125 439.733398438 c 1
 249.538085938 454.515625 282.793945312 466.193359375 319.852539062 466.193359375 c 0
 386.234375 466.193359375 419.564453125 429.307617188 419.564453125 388.061523438 c 0
 419.564453125 374.694335938 417.016601562 294.040039062 357.44921875 235.569335938 c 1
 421.801757812 201.73828125 433.626953125 93.2294921875 449.217773438 73.19140625 c 0
 453.548828125 68.6806640625 471.66015625 66.4755859375 503.500976562 66.4755859375 c 0
 503.65625 66.4755859375 518.624023438 66.5 519.052734375 66.5 c 0
 537.541992188 66.5 552.552734375 51.4892578125 552.552734375 33 c 0
 552.552734375 14.5107421875 537.541992188 -0.5 519.052734375 -0.5 c 0
 518.848632812 -0.5 503.65625 -0.5244140625 503.500976562 -0.5244140625 c 0
 441.526367188 -0.5244140625 404.517578125 5.1630859375 382.830078125 55.748046875 c 0
 371.556640625 82.04296875 364.328125 117.64453125 350.506835938 145.431640625 c 0
 344.458984375 157.58984375 337.627929688 167.157226562 330.087890625 173.713867188 c 0
 320.856445312 181.740234375 293.94140625 183.762695312 274.247070312 185.241210938 c 0
 264.302734375 185.98828125 253.83203125 186.615234375 243.092773438 188.141601562 c 1
 223.625976562 143.883789062 197.79296875 103.89453125 166.124023438 55.1318359375 c 0
 150.284179688 30.7412109375 145.563476562 23.3271484375 140.353515625 15.0771484375 c 0
 134.41796875 5.6787109375 123.9375 -0.568359375 112.009765625 -0.568359375 c 0
 93.521484375 -0.568359375 78.5107421875 14.44140625 78.5107421875 32.9296875 c 0
 78.5107421875 39.4912109375 80.400390625 45.61328125 83.7080078125 50.853515625 c 0
 92.4931640625 64.763671875 101.291992188 78.3095703125 109.893554688 91.5546875 c 0
 160.973632812 170.20703125 203.56640625 236.467773438 203.56640625 307.579101562 c 0
 203.56640625 354.623046875 186.854492188 399.5 165.052734375 399.5 c 0
 123.259765625 399.5 92 332.32421875 92 255.159179688 c 0
266.000976562 259.704101562 m 1
 322.205078125 267.826171875 352.564453125 342.591796875 352.564453125 388.061523438 c 0
 352.564453125 395.788085938 332.44140625 399.193359375 319.852539062 399.193359375 c 0
 314.998046875 399.193359375 283.0234375 398.510742188 260.036132812 381.029296875 c 1
 267.215820312 357.952148438 270.56640625 332.838867188 270.56640625 307.579101562 c 0
 270.56640625 296.243164062 269.856445312 279.983398438 266.000976562 259.704101562 c 1
EndSplineSet
EndChar

StartChar: uni211D
Encoding: 19 8477 19
Width: 494
VWidth: 0
Flags: HW
LayerCount: 2
Fore
SplineSet
95.5048828125 467.032226562 m 4
 113.994140625 467.032226562 129.004882812 452.020507812 129.004882812 433.53125 c 4
 129.004882812 433.232421875 129.000976562 432.93359375 128.993164062 432.60546875 c 4
 126.150390625 324.61328125 116.782226562 245.969726562 106.048828125 155.875976562 c 4
 101.450195312 117.275390625 96.591796875 76.490234375 91.828125 30.0498046875 c 4
 90.09765625 13.1787109375 75.8271484375 0 58.501953125 0 c 4
 40.01171875 0 25 15.01171875 25 33.501953125 c 4
 25 41.859375 39.3662109375 162.569335938 39.521484375 163.872070312 c 4
 50.2744140625 254.125 59.255859375 329.514648438 62.0166015625 434.3984375 c 4
 62.4921875 452.50390625 77.3154296875 467.032226562 95.5048828125 467.032226562 c 4
400.548828125 370.2890625 m 0
 400.548828125 297.3359375 335.365234375 229.932617188 281.508789062 194.758789062 c 1
 356.921875 149.286132812 384.54296875 98.7890625 450.775390625 63.55859375 c 0
 461.36328125 57.9267578125 468.578125 46.7802734375 468.578125 33.9609375 c 0
 468.578125 15.470703125 453.56640625 0.458984375 435.076171875 0.458984375 c 0
 429.405273438 0.458984375 424.061523438 1.87109375 419.30859375 4.4033203125 c 0
 328.408203125 52.7548828125 306.280273438 115.8984375 206.92578125 158.057617188 c 1
 203.52734375 119.397460938 200.061523438 78.21484375 196.408203125 30.416015625 c 0
 195.086914062 13.1318359375 180.625976562 -0.5009765625 163.004882812 -0.5009765625 c 0
 144.514648438 -0.5009765625 129.50390625 14.509765625 129.50390625 33 c 0
 129.50390625 55.439453125 151.120117188 272.244140625 163.604492188 435.583984375 c 0
 164.927734375 452.930664062 179.389648438 466.563476562 197.009765625 466.563476562 c 0
 210.5625 466.563476562 222.247070312 458.498046875 227.520507812 446.909179688 c 1
 260.740234375 460.153320312 287.670898438 466.0859375 310.836914062 466.0859375 c 0
 373.599609375 466.0859375 400.548828125 421.158203125 400.548828125 370.2890625 c 0
225.858398438 372.924804688 m 1
 221.690429688 322.016601562 217.715820312 277.969726562 213.759765625 234.259765625 c 1
 221.913085938 237.465820312 229.59375 241.454101562 237.9453125 246.528320312 c 1
 240.401367188 299.876953125 248.766601562 338.587890625 253.10546875 384.947265625 c 1
 243.671875 381.203125 234.396484375 377.0390625 225.858398438 372.924804688 c 1
311.901367188 314.463867188 m 1
 321.608398438 328.288085938 333.548828125 349.516601562 333.548828125 370.2890625 c 0
 333.548828125 375.756835938 332.9453125 390.827148438 326.48828125 395.6484375 c 0
 325.568359375 396.3359375 323.923828125 397.206054688 321.338867188 397.8984375 c 1
 319.731445312 372.84765625 318.015625 360.049804688 311.901367188 314.463867188 c 1
EndSplineSet
EndChar

StartChar: uni2124
Encoding: 20 8484 20
Width: 544
VWidth: 0
Flags: HW
LayerCount: 2
Fore
SplineSet
269.454101562 399.6875 m 0
 202.662109375 399.6875 135.850585938 394.498046875 134.500976562 394.498046875 c 0
 116.010742188 394.498046875 100.999023438 409.508789062 100.999023438 427.999023438 c 0
 100.999023438 445.698242188 114.754882812 460.2109375 132.150390625 461.418945312 c 0
 185.643554688 465.133789062 229.146484375 466.6875 269.454101562 466.6875 c 0
 315.7265625 466.6875 329.959960938 466.6875 482.774414062 456.423828125 c 0
 489.24609375 455.989257812 495.215820312 453.713867188 500.165039062 450.116210938 c 0
 511.3125 444.67578125 518.999023438 433.2265625 518.999023438 419.997070312 c 0
 518.999023438 412.15625 516.298828125 404.940429688 511.779296875 399.23046875 c 0
 428.861328125 294.493164062 374.603515625 202.865234375 288.803710938 85.2392578125 c 1
 305.325195312 86.2265625 321.780273438 86.822265625 338.375976562 86.822265625 c 0
 387.93359375 86.822265625 438.491210938 81.322265625 493.884765625 65.1650390625 c 0
 507.815429688 61.1025390625 518.004882812 48.228515625 518.004882812 32.994140625 c 0
 518.004882812 14.5009765625 502.991210938 -0.5126953125 484.499023438 -0.5126953125 c 0
 470.404296875 -0.5126953125 428.859375 19.822265625 338.375976562 19.822265625 c 0
 258.3828125 19.822265625 173.866210938 4.0107421875 59.8369140625 -0.4736328125 c 1
 59.796875 -0.4736328125 l 2
 59.3935546875 -0.490234375 58.9482421875 -0.5009765625 58.5 -0.5009765625 c 0
 40.0107421875 -0.5009765625 25 14.509765625 25 33 c 0
 25 43.2470703125 29.611328125 52.42578125 36.8701171875 58.5732421875 c 1
 41.2177734375 68.375 48.7548828125 72.6552734375 48.7548828125 72.7607421875 c 0
 48.7548828125 72.76171875 48.7548828125 72.76171875 48.7548828125 72.76171875 c 1
 153.765625 143.845703125 231.568359375 265.560546875 316.833007812 398.951171875 c 1
 301.217773438 399.427734375 285.6015625 399.6875 269.454101562 399.6875 c 0
394.056640625 395.177734375 m 1
 384.067382812 379.76953125 373.98828125 363.98046875 363.767578125 347.965820312 c 0
 303.8984375 254.166015625 239.413085938 151.828125 155.728515625 73.216796875 c 1
 170.655273438 74.58984375 185.15625 76.033203125 199.359375 77.4501953125 c 1
 281.70703125 184.8828125 350.309570312 295.744140625 422.850585938 393.315429688 c 1
 412.938476562 393.975585938 403.370117188 394.598632812 394.056640625 395.177734375 c 1
EndSplineSet
EndChar

StartChar: Omega
Encoding: 21 8486 21
Width: 591
VWidth: 0
Flags: W
HStem: 2 67<29.6734 159> 23 67<412.574 508.335> 400 67<221.772 388.961>
VStem: 124 67<180.75 373.033> 408 67<202.315 381.257>
LayerCount: 2
Fore
SplineSet
191 306 m 0x78
 191 278 202 223 213 169 c 0
 224 115 235 61 235 33 c 0
 235 15 220 0 201 -0 c 0
 200 0 201 -0 200 -0 c 2
 178 1 144 2 120 2 c 0
 110 2 100 2 89 1 c 0
 78 0 69 -1 59 -1 c 0
 41 -1 25 15 25 33 c 0
 25 50 38 64 55 66 c 0
 72 68 94 69 120 69 c 0xb8
 132 69 145 68 159 68 c 1
 136 168 124 248 124 306 c 0
 124 348 130 377 143 398 c 0
 170 441 233 467 311 467 c 0
 374 467 423 449 444 419 c 0
 464 389 475 352 475 307 c 0
 475 242 452 162 411 83 c 1
 436 87 460 90 479 90 c 0
 532 90 566 67 566 33 c 0
 566 15 551 -1 533 -1 c 0
 519 -1 507 7 502 20 c 0
 496 22 488 23 479 23 c 0
 450 23 397 14 352 1 c 2
 349 0 346 0 343 -0 c 0
 325 0 309 15 309 33 c 0
 309 42 316 54 327 71 c 0
 342 95 364 132 385 191 c 0
 400 233 408 274 408 307 c 0
 408 337 401 363 389 381 c 0
 382 391 345 400 311 400 c 0
 260 400 214 384 200 362 c 0
 194 353 191 333 191 306 c 0x78
EndSplineSet
EndChar

StartChar: uni2127
Encoding: 22 8487 22
Width: 591
VWidth: 0
Flags: HW
HStem: 2 67<32.6734 162> 23 67<415.574 511.335> 400 67<224.772 391.961>
VStem: 127 67<180.75 373.033> 411 67<202.315 381.257>
LayerCount: 2
Fore
SplineSet
191 161 m 4x78
 191 189 202 244 213 298 c 4
 224 352 235 406 235 434 c 4
 235 452 220 467 201 467 c 4
 200 467 201 467 200 467 c 6
 178 466 144 465 120 465 c 4
 110 465 100 465 89 466 c 4
 78 467 69 468 59 468 c 4
 41 468 25 452 25 434 c 4
 25 417 38 403 55 401 c 4
 72 399 94 398 120 398 c 4xb8
 132 398 145 399 159 399 c 5
 136 299 124 219 124 161 c 4
 124 119 130 90 143 69 c 4
 170 26 233 0 311 0 c 4
 374 0 423 18 444 48 c 4
 464 78 475 115 475 160 c 4
 475 225 452 305 411 384 c 5
 436 380 460 377 479 377 c 4
 532 377 566 400 566 434 c 4
 566 452 551 468 533 468 c 4
 519 468 507 460 502 447 c 4
 496 445 488 444 479 444 c 4
 450 444 397 453 352 466 c 6
 349 467 346 467 343 467 c 4
 325 467 309 452 309 434 c 4
 309 425 316 413 327 396 c 4
 342 372 364 335 385 276 c 4
 400 234 408 193 408 160 c 4
 408 130 401 104 389 86 c 4
 382 76 345 67 311 67 c 4
 260 67 214 83 200 105 c 4
 194 114 191 134 191 161 c 4x78
EndSplineSet
EndChar

StartChar: uni2128
Encoding: 23 8488 23
Width: 395
VWidth: 0
Flags: HW
LayerCount: 2
Fore
SplineSet
229.96484375 399.109375 m 0
 180.133789062 399.109375 135.499023438 385.48828125 126.6640625 385.48828125 c 0
 108.170898438 385.48828125 93.158203125 400.501953125 93.158203125 418.994140625 c 0
 93.158203125 434.803710938 104.130859375 448.0703125 118.869140625 451.586914062 c 0
 153.577148438 459.870117188 192.529296875 466.109375 229.96484375 466.109375 c 0
 266.810546875 466.109375 309.69140625 460.029296875 339.137695312 433.828125 c 0
 349.752929688 424.3828125 370.298828125 401.001953125 370.298828125 361.530273438 c 0
 370.298828125 284.876953125 288.5390625 232.290039062 201.926757812 232.290039062 c 0
 193.801757812 232.290039062 185.668945312 232.762695312 177.583007812 233.74609375 c 0
 161.013671875 235.76171875 148.16015625 249.892578125 148.16015625 267.002929688 c 0
 148.16015625 285.493164062 163.171875 300.505859375 181.663085938 300.505859375 c 0
 183.043945312 300.505859375 184.405273438 300.421875 185.672851562 300.26171875 c 2
 185.741210938 300.25390625 l 2
 191.034179688 299.610351562 196.4609375 299.290039062 201.926757812 299.290039062 c 0
 250.728515625 299.290039062 303.298828125 325.5703125 303.298828125 361.530273438 c 0
 303.298828125 371.444335938 302.16015625 386.185546875 273.103515625 394.225585938 c 0
 261.595703125 397.409179688 246.607421875 399.109375 229.96484375 399.109375 c 0
92.1630859375 99 m 0
 92.1630859375 97.4345703125 92 95.56640625 92 92.1513671875 c 0
 92 84.724609375 93.0732421875 81.130859375 93.5078125 80.189453125 c 0
 96.1103515625 74.546875 123.088867188 66.5 186.662109375 66.5 c 0
 223.567382812 66.5 245.767578125 73.7763671875 257.70703125 81.982421875 c 0
 271.41015625 91.4013671875 278.162109375 104.762695312 278.162109375 130 c 0
 278.162109375 134.8125 277.622070312 158.302734375 267.197265625 163.462890625 c 0
 265.370117188 164.3671875 262.267578125 165.388671875 256.69921875 165.388671875 c 0
 245.280273438 165.388671875 223.408203125 160.133789062 191.84765625 142.66796875 c 0
 186.977539062 139.969726562 181.459960938 138.458007812 175.590820312 138.458007812 c 0
 157.1015625 138.458007812 142.08984375 153.46875 142.08984375 171.958984375 c 0
 142.08984375 184.580078125 149.083984375 195.581054688 159.477539062 201.33203125 c 0
 196.583007812 221.866210938 227.822265625 232.388671875 256.69921875 232.388671875 c 0
 304.92578125 232.388671875 345.162109375 199.383789062 345.162109375 130 c 0
 345.162109375 82.0625 325.071289062 -0.5 186.662109375 -0.5 c 0
 103.643554688 -0.5 25 6.8486328125 25 92.1513671875 c 0
 25 94.9658203125 25.0732421875 97.74609375 25.1962890625 100.509765625 c 0
 25.986328125 118.299804688 40.6796875 132.500976562 58.6630859375 132.500976562 c 0
 77.15234375 132.500976562 92.1630859375 117.489257812 92.1630859375 99 c 0
EndSplineSet
EndChar

StartChar: uni2129
Encoding: 24 8489 24
Width: 211
VWidth: 0
Flags: HW
HStem: 0 21G<-622.5 -587.5> 281 20G<-624 -607>
VStem: -669 67<69.4044 259.335>
LayerCount: 2
Fore
SplineSet
117 301 m 0
 162 301 186 261 186 187 c 0
 186 144 179 91 165 27 c 0
 162 12 149 0 133 0 c 0
 115 0 99 16 99 34 c 0
 99 53 104 81 109 110 c 0
 114 139 119 168 119 187 c 0
 119 207 117 224 113 233 c 1
 103 228 97 221 90 215 c 0
 81 206 73 199 59 199 c 0
 41 199 25 214 25 232 c 0
 25 241 29 250 35 256 c 0
 66 287 92 301 117 301 c 0
EndSplineSet
EndChar

StartChar: uni212A
Encoding: 25 8490 25
Width: 350
Flags: W
HStem: 0 21G<50 68> 447 20G<71 89>
VStem: 47 67<290.058 463.515> 261 64<408.696 459.515>
LayerCount: 2
Fore
SplineSet
325 429 m 0
 325 381 228 277 130 219 c 1
 143 206 163 190 186 172 c 0
 224 142 271 106 311 61 c 0
 316 55 319 47 319 39 c 0
 319 21 304 6 286 6 c 0
 276 6 267 10 261 17 c 0
 224 59 124 138 103 154 c 0
 101 156 99 157 99 157 c 1
 92 32 l 2
 91 14 77 0 59 0 c 0
 41 0 25 16 25 34 c 0
 26 37 39 263 47 435 c 0
 48 453 62 467 80 467 c 0
 98 467 114 451 114 433 c 0
 114 432 114 436 106 283 c 1
 182 328 232 380 261 443 c 0
 266 455 277 463 291 463 c 0
 309 463 325 447 325 429 c 0
EndSplineSet
EndChar

StartChar: uni212C
Encoding: 26 8492 26
Width: 523
Flags: HW
LayerCount: 2
Fore
SplineSet
497.592773438 317.662109375 m 0
 497.592773438 276.8125 471.43359375 235.774414062 419.018554688 215.540039062 c 1
 429.02734375 205.5546875 437.896484375 194.0703125 445.016601562 180.84765625 c 0
 453.115234375 165.805664062 455.58203125 149.674804688 455.58203125 133.326171875 c 0
 455.58203125 122.416992188 453.39453125 59.2158203125 403.76171875 29.2900390625 c 0
 371.276367188 9.703125 337.07421875 -0.3955078125 304.27734375 -0.3955078125 c 0
 263.600585938 -0.3955078125 224.38671875 16.365234375 200.889648438 49.970703125 c 1
 186.831054688 29.1552734375 164.822265625 18.5556640625 144.970703125 11.9326171875 c 0
 116.374023438 2.392578125 85.10546875 -0.5 58.5 -0.5 c 0
 40.0107421875 -0.5 25 14.5107421875 25 33 c 0
 25 51.4892578125 40.0107421875 66.5 58.5 66.5 c 0
 79.6728515625 66.5 105.546875 69.423828125 123.77734375 75.505859375 c 0
 139.149414062 80.634765625 145.249023438 87.1171875 145.919921875 88.400390625 c 0
 164.400390625 123.717773438 167.42578125 149.344726562 171.290039062 180.846679688 c 0
 172.8828125 193.833984375 174.559570312 207.762695312 177.703125 222.856445312 c 0
 183.07421875 248.637695312 202.00390625 319.649414062 256.646484375 381.918945312 c 1
 251.366210938 379.34375 246.045898438 376.459960938 240.700195312 373.252929688 c 0
 235.598632812 370.192382812 229.71484375 368.45703125 223.428710938 368.45703125 c 0
 204.939453125 368.45703125 189.928710938 383.467773438 189.928710938 401.95703125 c 0
 189.928710938 414.16015625 196.466796875 424.84765625 206.299804688 430.747070312 c 0
 246.431640625 454.826171875 287.997070312 466.431640625 327.46875 466.431640625 c 0
 405.005859375 466.431640625 472.6171875 420.111328125 493.75 345.08984375 c 0
 496.288085938 336.080078125 497.592773438 326.877929688 497.592773438 317.662109375 c 0
251.0234375 97.59765625 m 1
 251.0234375 97.59765625 251.0234375 97.5908203125 251.0234375 97.59765625 c 1
251.041992188 97.412109375 m 0
 251.140625 96.8046875 260.170898438 66.6044921875 304.27734375 66.6044921875 c 0
 322.942382812 66.6044921875 345.905273438 72.6416015625 369.23828125 86.7099609375 c 0
 381.684570312 94.21484375 388.58203125 116.330078125 388.58203125 133.326171875 c 0
 388.58203125 141.69921875 386.545898438 148.108398438 385.983398438 149.15234375 c 0
 366.243164062 185.813476562 316.043945312 206.174804688 245.499023438 218.684570312 c 1
 241.563476562 203.1015625 240.153320312 191.7109375 237.34375 169.000976562 c 1
 250.30859375 174.895507812 271.104492188 181.870117188 296.985351562 181.870117188 c 0
 300.826171875 181.870117188 304.666015625 181.708007812 308.499023438 181.3671875 c 0
 325.5859375 179.848632812 339.001953125 165.477539062 339.001953125 147.998046875 c 0
 339.001953125 129.5078125 323.990234375 114.49609375 305.5 114.49609375 c 0
 302.61328125 114.49609375 301.435546875 114.870117188 296.985351562 114.870117188 c 0
 277.090820312 114.870117188 255.29296875 105.5703125 251.041992188 97.412109375 c 0
347.073242188 269.98046875 m 0
 397.62109375 269.98046875 430.592773438 292.952148438 430.592773438 317.662109375 c 0
 430.592773438 327.868164062 419.901367188 368.446289062 378.16015625 388.524414062 c 0
 376.399414062 387.432617188 374.529296875 386.499023438 372.534179688 385.729492188 c 0
 349.673828125 376.916015625 306.327148438 352.09375 270.9453125 284.48828125 c 1
 299.525390625 274.190429688 325.287109375 269.98046875 347.073242188 269.98046875 c 0
EndSplineSet
EndChar

StartChar: uni212D
Encoding: 27 8493 27
Width: 479
Flags: HW
LayerCount: 2
Fore
SplineSet
176.450195312 466.528320312 m 0
 194.9375 466.528320312 209.946289062 451.51953125 209.946289062 433.033203125 c 0
 209.946289062 422.21875 204.810546875 412.594726562 196.798828125 406.432617188 c 0
 134.259765625 358.325195312 92 285.220703125 92 215.696289062 c 0
 92 180.7890625 102.126953125 145.986328125 126.44921875 112.756835938 c 0
 150.415039062 80.015625 203.567382812 66.7158203125 252.868164062 66.7158203125 c 0
 292.33203125 66.7158203125 332.0390625 75.4169921875 357.944335938 88.1689453125 c 0
 379.625 98.83984375 386.771484375 110.04296875 387.66796875 114.15625 c 0
 390.94921875 129.213867188 404.370117188 140.504882812 420.40625 140.504882812 c 0
 438.8984375 140.504882812 453.911132812 125.491210938 453.911132812 106.999023438 c 0
 453.911132812 104.75 453.17578125 70.642578125 409.190429688 40.5986328125 c 0
 368.911132812 13.0869140625 311.047851562 -0.2841796875 252.868164062 -0.2841796875 c 0
 212.404296875 -0.2841796875 120.51953125 7.435546875 72.3505859375 73.2431640625 c 0
 39.7060546875 117.842773438 25 167.147460938 25 215.696289062 c 0
 25 311.58203125 80.29296875 401.330078125 156.001953125 459.567382812 c 0
 161.704101562 463.943359375 168.778320312 466.528320312 176.450195312 466.528320312 c 0
241.923828125 226.759765625 m 0
 241.923828125 261.291015625 171.892578125 309.436523438 171.892578125 362.194335938 c 0
 171.892578125 385.731445312 191.404296875 400.770507812 235.00390625 421.737304688 c 0
 269.397460938 438.27734375 314.6015625 455.837890625 353.287109375 465.508789062 c 0
 355.864257812 466.166015625 358.591796875 466.512695312 361.3984375 466.512695312 c 0
 379.891601562 466.512695312 394.905273438 451.499023438 394.905273438 433.005859375 c 0
 394.905273438 417.321289062 384.103515625 404.138671875 369.540039062 400.497070312 c 0
 368.232421875 400.170898438 298.201171875 381.609375 244.12109375 351.051757812 c 1
 255.791992188 330.625976562 279.995117188 306.8671875 295.34375 277.883789062 c 0
 307.491210938 254.943359375 308.923828125 238.21484375 308.923828125 226.759765625 c 0
 308.923828125 201.639648438 301.5703125 166.125 264.702148438 145.936523438 c 0
 242.409179688 133.729492188 216.545898438 130.34765625 187.049804688 130.34765625 c 0
 177.184570312 130.34765625 166.827148438 130.782226562 155.895507812 131.592773438 c 0
 138.573242188 132.875976562 124.899414062 147.354492188 124.899414062 165.000976562 c 0
 124.899414062 183.491210938 139.91015625 198.502929688 158.400390625 198.502929688 c 0
 161.36328125 198.502929688 172.393554688 197.34765625 187.049804688 197.34765625 c 0
 211.00390625 197.34765625 225.9921875 201.129882812 232.59375 204.744140625 c 0
 236.473632812 206.869140625 241.923828125 209.853515625 241.923828125 226.759765625 c 0
EndSplineSet
EndChar

StartChar: uni212F
Encoding: 28 8495 28
Width: 399
Flags: HW
LayerCount: 2
Fore
SplineSet
189.473632812 211.434570312 m 0
 189.473632812 214.3984375 189.2421875 223.724609375 186.594726562 232.110351562 c 1
 173.112304688 226.169921875 160.171875 207.760742188 154.772460938 193.875 c 0
 151.03515625 184.264648438 148.063476562 171.704101562 146.409179688 158.264648438 c 1
 160.7109375 166.344726562 184.45703125 187.263671875 184.803710938 187.600585938 c 0
 186.342773438 190.038085938 189.473632812 200.161132812 189.473632812 211.434570312 c 0
172.537109375 -0.5 m 0
 153.299804688 -0.5 103.619140625 6.87109375 84.4931640625 80.05859375 c 0
 83.7666015625 80.05859375 83.03515625 80.0537109375 82.30078125 80.0537109375 c 0
 74.548828125 80.0537109375 66.2841796875 80.2158203125 57.376953125 80.51953125 c 0
 39.3876953125 81.1328125 25 95.8994140625 25 114.000976562 c 0
 25 132.490234375 40.0107421875 147.500976562 58.5 147.500976562 c 0
 58.697265625 147.500976562 69.5703125 147.138671875 78.2275390625 147.0703125 c 1
 80.185546875 191.465820312 92.96875 242.658203125 134.310546875 277.494140625 c 0
 148.94921875 289.828125 167.623046875 300.39453125 190.521484375 300.39453125 c 0
 239.604492188 300.39453125 256.473632812 253.668945312 256.473632812 211.434570312 c 0
 256.473632812 185.578125 250.485351562 155.174804688 226.98828125 135.435546875 c 0
 199.219726562 112.107421875 181.454101562 97.1826171875 152.087890625 88.1708984375 c 1
 155.068359375 80.037109375 158.685546875 74.3203125 161.647460938 71.2421875 c 0
 165.159179688 67.5927734375 167.432617188 66.5 172.537109375 66.5 c 0
 241.823242188 66.5 258.095703125 80.923828125 279.163085938 99.5986328125 c 0
 288.638671875 107.998046875 319.665039062 135.5 340.5390625 135.5 c 0
 359.030273438 135.5 374.04296875 120.487304688 374.04296875 101.99609375 c 0
 374.04296875 88.51953125 366.068359375 76.890625 354.58203125 71.58203125 c 0
 324.544921875 57.67578125 311.114257812 28.2822265625 263.122070312 11.728515625 c 0
 240.060546875 3.7744140625 211.440429688 -0.5 172.537109375 -0.5 c 0
EndSplineSet
EndChar

StartChar: uni2130
Encoding: 29 8496 29
Width: 408
VWidth: 0
Flags: HW
LayerCount: 2
Fore
SplineSet
211.978515625 67.6240234375 m 1
 229.892578125 116.174804688 279.961914062 153.444335938 323.515625 153.444335938 c 0
 338.806640625 153.444335938 359.96875 147.75390625 371.53515625 127.705078125 c 0
 378.157226562 116.227539062 383.1953125 101.888671875 383.1953125 84.8525390625 c 0
 383.1953125 65.7607421875 375.073242188 7.357421875 276.491210938 1.55859375 c 0
 241.624023438 -0.4931640625 241.624023438 -0.4931640625 230.684570312 -0.4931640625 c 0
 199.930664062 -0.4931640625 113.963867188 1.654296875 109.029296875 113.500976562 c 0
 108.962890625 115.009765625 108.9296875 116.513671875 108.9296875 118.014648438 c 0
 108.9296875 169.001953125 147.234375 202.268554688 170.759765625 219.39453125 c 1
 158.958007812 226.875 131.93359375 247.594726562 131.93359375 294.59765625 c 0
 131.93359375 300.069335938 132.446289062 311.51171875 133.936523438 323.401367188 c 1
 103.318359375 339.177734375 72.033203125 359.715820312 39.8828125 381.149414062 c 0
 30.9404296875 387.116210938 25 397.37109375 25 409.001953125 c 0
 25 427.490234375 40.009765625 442.5 58.498046875 442.5 c 0
 65.3544921875 442.5 71.7333984375 440.434570312 77.044921875 436.893554688 c 0
 104.14453125 418.828125 129.873046875 402.09375 153.038085938 389.204101562 c 1
 162.206054688 407.811523438 174.96875 425.743164062 192.466796875 442.319335938 c 0
 199.479492188 448.962890625 221.583984375 466.041992188 263.499023438 466.041992188 c 0
 282.684570312 466.041992188 312.793945312 461.942382812 328.390625 438.548828125 c 0
 336.896484375 425.7890625 341.450195312 411.18359375 341.450195312 396.631835938 c 0
 341.450195312 357.19921875 309.861328125 322.682617188 269.190429688 304.421875 c 0
 255.568359375 298.305664062 241.124023438 295.696289062 226.890625 295.696289062 c 0
 217.47265625 295.696289062 208.20703125 296.741210938 199.047851562 298.607421875 c 1
 198.94140625 296.139648438 198.93359375 295.415039062 198.93359375 294.59765625 c 0
 198.93359375 279.790039062 204.467773438 276.909179688 208.508789062 274.935546875 c 0
 214.383789062 272.06640625 224.905273438 270.228515625 235.274414062 270.228515625 c 0
 250.232421875 270.228515625 260.012695312 272.659179688 260.012695312 272.659179688 c 2
 262.431640625 273.211914062 264.923828125 273.499023438 267.446289062 273.499023438 c 0
 285.969726562 273.499023438 300.944335938 258.3984375 300.944335938 239.978515625 c 0
 300.944335938 218.547851562 285.481445312 209.799804688 252.060546875 190.892578125 c 0
 210.705078125 167.497070312 175.9296875 145.198242188 175.9296875 118.014648438 c 0
 175.9296875 117.692382812 176.100585938 99.203125 181.7109375 86.2333984375 c 0
 185.4140625 77.671875 190.293945312 70.4990234375 211.978515625 67.6240234375 c 1
316.194335938 84.6484375 m 1
 308.010742188 81.7958984375 300.569335938 77.3232421875 293.724609375 71.2109375 c 1
 304.1328125 73.5 316.072265625 77.6484375 316.194335938 84.6484375 c 1
263.499023438 399.041992188 m 0
 250.3828125 399.041992188 239.602539062 394.9140625 238.526367188 393.680664062 c 0
 228.424804688 384.110351562 220.765625 374.284179688 215.00390625 363.92578125 c 1
 219.428710938 363.102539062 223.409179688 362.696289062 226.890625 362.696289062 c 0
 250.220703125 362.696289062 274.450195312 387.067382812 274.450195312 396.631835938 c 0
 274.450195312 396.9921875 274.447265625 397.389648438 274.333007812 397.90625 c 0
 271.838867188 398.467773438 267.866210938 399.041992188 263.499023438 399.041992188 c 0
EndSplineSet
EndChar

StartChar: uni2131
Encoding: 30 8497 30
Width: 565
VWidth: 0
Flags: HW
LayerCount: 2
Fore
SplineSet
92 83.7626953125 m 0
 92 83.5830078125 92.00390625 74.6376953125 97.4580078125 66.7265625 c 1
 134.477539062 69.3544921875 198.779296875 90.0712890625 223.2734375 128.853515625 c 0
 230.213867188 139.842773438 237.986328125 156.463867188 245.521484375 176.755859375 c 1
 230.211914062 169.770507812 213.048828125 160.860351562 192.791015625 149.661132812 c 0
 187.923828125 146.967773438 182.41015625 145.458007812 176.546875 145.458007812 c 0
 158.056640625 145.458007812 143.044921875 160.46875 143.044921875 178.958984375 c 0
 143.044921875 191.584960938 150.044921875 202.58984375 160.4453125 208.338867188 c 0
 201.6953125 231.143554688 235.388671875 247.172851562 268.604492188 256.415039062 c 1
 278.705078125 301.842773438 285.465820312 352.247070312 286.2265625 399.138671875 c 1
 277.516601562 399.405273438 268.990234375 399.548828125 260.69140625 399.548828125 c 0
 222.509765625 399.548828125 160.092773438 396.1484375 137.182617188 375.248046875 c 0
 133.2734375 371.682617188 129.517578125 368.412109375 126.020507812 365.365234375 c 0
 104.044921875 346.215820312 98.1318359375 339.798828125 98.1318359375 326.135742188 c 0
 98.1318359375 315.525390625 103.185546875 294.610351562 122.689453125 260.646484375 c 0
 125.548828125 255.669921875 127.16015625 249.985351562 127.16015625 243.927734375 c 0
 127.16015625 225.438476562 112.149414062 210.427734375 93.66015625 210.427734375 c 0
 81.2275390625 210.427734375 70.3681640625 217.213867188 64.5458984375 227.353515625 c 0
 42.2490234375 266.180664062 31.1318359375 297.032226562 31.1318359375 326.135742188 c 0
 31.1318359375 372.795898438 62.5302734375 398.892578125 82.037109375 415.890625 c 0
 85.5341796875 418.938476562 88.8896484375 421.866210938 92.052734375 424.751953125 c 0
 124.477539062 454.33203125 179.262695312 466.548828125 260.69140625 466.548828125 c 0
 329.056640625 466.548828125 399.561523438 458.71484375 493.3515625 448.293945312 c 0
 510.087890625 446.434570312 523.120117188 432.225585938 523.120117188 414.997070312 c 0
 523.120117188 396.506835938 508.108398438 381.495117188 489.6171875 381.495117188 c 0
 488.24609375 381.495117188 399.572265625 391.489257812 353.168945312 395.228515625 c 1
 352.299804688 352.0078125 347.063476562 307.63671875 339.020507812 265.852539062 c 1
 386.088867188 265.700195312 436.846679688 255.090820312 513.609375 238.768554688 c 0
 528.75 235.548828125 540.122070312 222.088867188 540.122070312 205.994140625 c 0
 540.122070312 187.501953125 525.109375 172.489257812 506.616210938 172.489257812 c 0
 494.119140625 172.489257812 396.323242188 198.853515625 337.998046875 198.853515625 c 0
 332.883789062 198.853515625 327.919921875 198.697265625 323.038085938 198.364257812 c 1
 311.048828125 156.052734375 296.717773438 119.67578125 279.962890625 93.146484375 c 0
 237.813476562 26.4111328125 142.094726562 -0.5 91.6181640625 -0.5 c 0
 52.7373046875 -0.5 25 43.59765625 25 83.7626953125 c 0
 25 119.713867188 49.46484375 149.499023438 73.6162109375 149.499023438 c 0
 92.103515625 149.499023438 107.112304688 134.490234375 107.112304688 116.002929688 c 0
 107.112304688 104.795898438 101.596679688 94.8671875 93.138671875 88.779296875 c 0
 93.1259765625 88.7705078125 92 88.775390625 92 83.7626953125 c 0
EndSplineSet
EndChar

StartChar: uni2133
Encoding: 31 8499 31
Width: 665
VWidth: 0
Flags: HW
LayerCount: 2
Fore
SplineSet
86.6953125 -0.5 m 0
 50.55078125 -0.5 25 36.111328125 25 86.94140625 c 0
 25 99.8095703125 26.3759765625 112.494140625 31.9814453125 125.38671875 c 0
 37.107421875 137.201171875 48.9375 145.506835938 62.69140625 145.506835938 c 0
 81.1826171875 145.506835938 96.1962890625 130.494140625 96.1962890625 112.001953125 c 0
 96.1962890625 100.776367188 92 100.829101562 92 86.94140625 c 0
 92 80.5634765625 93.0986328125 72.505859375 95.078125 66.9501953125 c 1
 143.043945312 71.94140625 191.389648438 113.580078125 203.068359375 135.639648438 c 0
 256.749023438 237.037109375 332.19140625 444.408203125 332.19140625 444.408203125 c 2
 336.907226562 457.412109375 349.350585938 466.459960938 363.681640625 466.459960938 c 0
 379.28125 466.459960938 392.512695312 455.803710938 396.178710938 441.140625 c 0
 399.12109375 429.368164062 399.8515625 417.473632812 399.8515625 404.369140625 c 0
 399.8515625 361.216796875 390.526367188 302.994140625 381.70703125 245.88671875 c 0
 377.82421875 220.739257812 374.044921875 195.772460938 371.1015625 173.30859375 c 1
 405.551757812 257.020507812 442.142578125 378.76171875 466.228515625 444.510742188 c 0
 471.086914062 457.772460938 483.703125 466.45703125 497.625976562 466.45703125 c 0
 516.221679688 466.45703125 531.178710938 451.38671875 531.178710938 432.982421875 c 0
 531.178710938 432.001953125 531.135742188 431.024414062 531.05078125 430.05078125 c 2
 531.05078125 430.05078125 515.030273438 245.98828125 515.030273438 129.868164062 c 0
 515.030273438 106.692382812 515.71484375 85.41796875 517.216796875 70.587890625 c 1
 519.204101562 71.216796875 557.448242188 83.6171875 580.40234375 112.750976562 c 0
 586.538085938 120.538085938 596.052734375 125.541992188 606.7265625 125.541992188 c 0
 625.212890625 125.541992188 640.221679688 110.533203125 640.221679688 92.046875 c 0
 640.221679688 84.234375 637.541015625 77.0419921875 633.0234375 71.29296875 c 0
 601.33984375 31.080078125 542.643554688 -0.5 495.6953125 -0.5 c 0
 488.606445312 -0.5 466.380859375 1.94921875 456.577148438 31.5380859375 c 0
 449.50390625 52.8857421875 448.030273438 90.0947265625 448.030273438 129.866210938 c 0
 448.030273438 129.8671875 l 0
 448.030273438 130.096679688 448.41015625 168.291992188 449.043945312 188.620117188 c 1
 406.49609375 75.0546875 380.696289062 38.4873046875 345.193359375 38.4873046875 c 0
 337.666015625 38.4873046875 308.383789062 41.0888671875 300.6171875 80.8583984375 c 0
 298.86328125 89.83984375 298.368164062 98.8359375 298.366210938 108.559570312 c 0
 298.366210938 108.559570312 298.365234375 108.563476562 298.365234375 108.571289062 c 0
 298.365234375 109.48046875 302.065429688 165.637695312 306.727539062 198.2890625 c 1
 291.793945312 164.037109375 276.534179688 131.203125 262.323242188 104.360351562 c 0
 239.474609375 61.2021484375 164.421875 -0.5 86.6953125 -0.5 c 0
EndSplineSet
EndChar

StartChar: uni2134
Encoding: 32 8500 32
Width: 477
VWidth: 0
Flags: HW
LayerCount: 2
Fore
SplineSet
294.504882812 300.5 m 0
 326.830078125 300.5 361.025390625 275.893554688 361.025390625 211.809570312 c 0
 361.025390625 201.125 360.029296875 189.254882812 358.065429688 176.642578125 c 1
 371.693359375 175.8046875 386.951171875 175.422851562 403.495117188 175.422851562 c 0
 411.161132812 175.422851562 418.3671875 175.5 418.517578125 175.5 c 0
 437.006835938 175.5 452.017578125 160.489257812 452.017578125 142 c 0
 452.017578125 123.62109375 437.185546875 108.6796875 418.8359375 108.501953125 c 0
 413.649414062 108.451171875 408.53515625 108.422851562 403.495117188 108.422851562 c 0
 381.038085938 108.422851562 360.107421875 108.879882812 340.712890625 110.592773438 c 1
 326.5546875 72.1435546875 290.770507812 -0.5 222.504882812 -0.5 c 0
 146.3125 -0.5 102.51171875 48.109375 101.326171875 120.438476562 c 1
 68.6064453125 113.248046875 67.646484375 110.487304688 58.5068359375 110.487304688 c 0
 40.013671875 110.487304688 25 125.500976562 25 143.993164062 c 0
 25 159.107421875 35.0283203125 171.896484375 48.7880859375 176.06640625 c 0
 71.2314453125 182.8671875 90.111328125 186.671875 112.168945312 191.116210938 c 1
 118.109375 209.506835938 124.1015625 221.239257812 131.40234375 234.1171875 c 0
 148.043945312 263.46875 169.040039062 300.5 210.504882812 300.5 c 0
 217.778320312 300.5 233.5859375 298.77734375 247.87890625 285.5625 c 1
 260.633789062 295.657226562 277.111328125 300.5 294.504882812 300.5 c 0
274.349609375 124.95703125 m 1
 264.6640625 129.020507812 242.939453125 139.27734375 229.723632812 162.487304688 c 1
 208.8828125 149.356445312 188.557617188 141.30078125 168.905273438 135.5859375 c 0
 168.510742188 131.522460938 168.30078125 127.508789062 168.30078125 123.602539062 c 0
 168.30078125 75.84375 193.965820312 66.5 222.504882812 66.5 c 0
 236.48828125 66.5 256.975585938 82.8583984375 274.349609375 124.95703125 c 1
285.834960938 205.852539062 m 0
 285.834960938 197.6328125 287.79296875 194.432617188 292.360351562 191.15234375 c 1
 293.483398438 199.309570312 294.025390625 206.458007812 294.025390625 211.809570312 c 0
 294.025390625 216.54296875 293.579101562 225.34765625 290.75390625 233.266601562 c 0
 290.219726562 233.182617188 289.84765625 233.08984375 289.594726562 233.010742188 c 0
 287.133789062 228.379882812 285.834960938 209.263671875 285.834960938 205.852539062 c 0
EndSplineSet
EndChar

StartChar: aleph
Encoding: 33 8501 33
Width: 553
VWidth: 0
Flags: HW
LayerCount: 2
Fore
SplineSet
411.159179688 291.190429688 m 0
 411.159179688 297.698242188 381.819335938 318.227539062 381.819335938 363.581054688 c 0
 381.819335938 374.671875 382.318359375 403.72265625 415.290039062 433.682617188 c 0
 436.23046875 452.7109375 464.127929688 466.5 494.504882812 466.5 c 0
 512.994140625 466.5 528.004882812 451.489257812 528.004882812 433 c 0
 528.004882812 414.510742188 512.994140625 399.5 494.504882812 399.5 c 0
 479.634765625 399.5 448.819335938 382.463867188 448.819335938 363.581054688 c 0
 448.819335938 354.931640625 450.90625 351.373046875 458.341796875 341.458984375 c 0
 464.724609375 332.948242188 478.13671875 315.672851562 478.13671875 290.432617188 c 0
 478.13671875 236.76953125 432.938476562 204.139648438 398.313476562 179.143554688 c 0
 390.060546875 173.185546875 382.279296875 167.47265625 375.462890625 162.024414062 c 1
 399.51171875 128.985351562 424.5078125 93.0146484375 452.321289062 51.6630859375 c 0
 455.909179688 46.3291015625 458.00390625 39.908203125 458.00390625 33.0009765625 c 0
 458.00390625 14.513671875 442.994140625 -0.49609375 424.506835938 -0.49609375 c 0
 412.924804688 -0.49609375 402.708984375 5.3935546875 396.6875 14.3369140625 c 0
 322.05078125 125.30078125 269.899414062 194.704101562 200.2734375 274.454101562 c 1
 186.280273438 254.802734375 172.826171875 235.908203125 172.826171875 217.327148438 c 0
 172.826171875 199.791015625 199.909179688 182.970703125 199.909179688 142.98046875 c 0
 199.909179688 125.401367188 194.224609375 80.0087890625 140.875976562 41.15234375 c 0
 119.518554688 25.5966796875 96.02734375 14.08203125 73.2177734375 2.900390625 c 0
 68.775390625 0.72265625 63.78125 -0.5 58.5029296875 -0.5 c 0
 40.0126953125 -0.5 25 14.51171875 25 33.0029296875 c 0
 25 46.2158203125 32.6650390625 57.6533203125 43.791015625 63.099609375 c 0
 99.0361328125 90.1806640625 126.986328125 107.26171875 132.506835938 138.8046875 c 0
 132.818359375 140.588867188 132.909179688 141.939453125 132.909179688 142.98046875 c 0
 132.909179688 156.872070312 105.826171875 176.509765625 105.826171875 217.327148438 c 0
 105.826171875 257.313476562 126.884765625 286.887695312 144.358398438 311.427734375 c 0
 147.888671875 316.385742188 151.262695312 321.146484375 154.395507812 325.8125 c 1
 130.951171875 351.548828125 105.213867188 379.1640625 76.123046875 410.03515625 c 0
 70.470703125 416.052734375 67.005859375 424.1328125 67.005859375 433.015625 c 0
 67.005859375 451.500976562 82.013671875 466.508789062 100.499023438 466.508789062 c 0
 110.1015625 466.508789062 118.765625 462.458984375 124.875976562 455.975585938 c 0
 215.662109375 359.630859375 275.7890625 292.602539062 335.196289062 215.749023438 c 1
 354.252929688 230.776367188 379.685546875 246.932617188 394.869140625 261.745117188 c 0
 398.696289062 265.478515625 411.13671875 277.61328125 411.13671875 290.432617188 c 0
 411.13671875 290.727539062 411.159179688 290.958984375 411.159179688 291.190429688 c 0
EndSplineSet
EndChar

StartChar: uni2136
Encoding: 34 8502 34
Width: 452
VWidth: 0
Flags: HW
LayerCount: 2
Fore
SplineSet
184.262695312 233.322265625 m 0
 139.662109375 233.322265625 71.8359375 218.493164062 59.509765625 218.493164062 c 0
 41.01953125 218.493164062 26.0068359375 233.504882812 26.0068359375 251.99609375 c 0
 26.0068359375 268.890625 38.537109375 282.880859375 54.8037109375 285.171875 c 0
 64.0498046875 286.473632812 73.93359375 288.043945312 84.2255859375 289.680664062 c 0
 115.358398438 294.631835938 149.958007812 300.322265625 184.262695312 300.322265625 c 0
 221.328125 300.322265625 262.036132812 293.840820312 292.193359375 263.68359375 c 0
 307.670898438 248.205078125 310.512695312 228.67578125 310.512695312 213.1484375 c 0
 310.512695312 170.908203125 290.208007812 124.223632812 279.688476562 67.193359375 c 1
 311.692382812 68.7236328125 345.8671875 72.6337890625 386.909179688 80.8486328125 c 2
 386.958984375 80.8583984375 l 2
 389.09375 81.2861328125 391.30078125 81.509765625 393.560546875 81.509765625 c 0
 412.052734375 81.509765625 427.065429688 66.4970703125 427.065429688 48.0048828125 c 0
 427.065429688 31.7724609375 415.497070312 18.2197265625 400.110351562 15.1513671875 c 0
 339.327148438 2.9853515625 290.2578125 -0.6259765625 243.93359375 -0.6259765625 c 0
 188.046875 -0.6259765625 128.336914062 4.9638671875 58.248046875 5.5009765625 c 0
 39.869140625 5.6416015625 25 20.5986328125 25 39 c 0
 25 57.4892578125 40.0107421875 72.5 58.5 72.5 c 0
 94.4111328125 72.5 210.114257812 66.9658203125 211.646484375 66.91796875 c 1
 219.631835938 120.673828125 243.512695312 185.672851562 243.512695312 213.1484375 c 0
 243.512695312 215.282226562 243.348632812 216.875976562 243.1953125 217.850585938 c 0
 232.225585938 227.559570312 212.9140625 233.322265625 184.262695312 233.322265625 c 0
EndSplineSet
EndChar

StartChar: uni2137
Encoding: 35 8503 35
Width: 385
VWidth: 0
Flags: HW
LayerCount: 2
Fore
SplineSet
97.4365234375 382.465820312 m 0
 78.9453125 382.465820312 63.9326171875 397.479492188 63.9326171875 415.970703125 c 0
 63.9326171875 429.62890625 72.123046875 441.389648438 83.9130859375 446.629882812 c 0
 111.870117188 459.0546875 139.04296875 466.543945312 166.078125 466.543945312 c 0
 197.375 466.543945312 238.400390625 455.879882812 270.078125 410.001953125 c 0
 283.375 390.744140625 288.668945312 368.75 288.668945312 347.291015625 c 0
 288.668945312 303.96484375 268.630859375 257.276367188 244.094726562 202.361328125 c 0
 239.489257812 192.0546875 234.81640625 182.345703125 230.055664062 173.1640625 c 1
 257.620117188 127.586914062 290.940429688 77.4912109375 335.359375 65.3115234375 c 0
 349.553710938 61.419921875 359.997070312 48.4169921875 359.997070312 32.994140625 c 0
 359.997070312 14.5009765625 344.982421875 -0.5126953125 326.490234375 -0.5126953125 c 0
 323.419921875 -0.5126953125 320.446289062 -0.0986328125 317.638671875 0.6845703125 c 0
 262.337890625 15.84765625 222.551757812 60.8515625 190.267578125 110.274414062 c 1
 159.614257812 70.7705078125 127.358398438 45.0595703125 79.3486328125 6.791015625 c 0
 73.625 2.228515625 66.3759765625 -0.4990234375 58.4951171875 -0.4990234375 c 0
 40.0087890625 -0.4990234375 25 14.509765625 25 32.99609375 c 0
 25 49.1416015625 34.8125 56.9599609375 41.181640625 62.03515625 c 0
 108.094726562 115.353515625 145.31640625 145.547851562 182.889648438 229.638671875 c 0
 202.543945312 273.627929688 221.668945312 317.426757812 221.668945312 347.291015625 c 0
 221.668945312 358.192382812 219.428710938 365.447265625 214.905273438 371.998046875 c 0
 201.921875 390.801757812 186.974609375 399.543945312 166.078125 399.543945312 c 0
 152.009765625 399.543945312 133.369140625 395.28125 111.071289062 385.370117188 c 0
 106.866210938 383.4921875 102.270507812 382.465820312 97.4365234375 382.465820312 c 0
EndSplineSet
EndChar

StartChar: uni2138
Encoding: 36 8504 36
Width: 442
VWidth: 0
Flags: HW
LayerCount: 2
Fore
SplineSet
316.510742188 317.36328125 m 1
 280.229492188 300.002929688 249.751953125 292.126953125 220.868164062 292.126953125 c 0
 213.865234375 292.126953125 163.064453125 292.955078125 119.58203125 316.146484375 c 0
 83.498046875 335.392578125 53.3837890625 368.396484375 28.556640625 418.05078125 c 0
 26.2666015625 422.6171875 25 427.6953125 25 433.06640625 c 0
 25 451.557617188 40.01171875 466.569335938 58.5029296875 466.569335938 c 0
 71.6220703125 466.569335938 82.9912109375 459.01171875 88.5224609375 447.94921875 c 0
 122.155273438 380.682617188 157.779296875 363.970703125 214.278320312 359.389648438 c 0
 216.452148438 359.212890625 218.647460938 359.126953125 220.868164062 359.126953125 c 0
 255.416992188 359.126953125 293.27734375 380.080078125 321.625976562 395.768554688 c 0
 350.995117188 412.021484375 363.961914062 418.623046875 380.713867188 418.623046875 c 0
 403.696289062 418.623046875 416.700195312 401.439453125 416.700195312 383.997070312 c 0
 416.700195312 363.669921875 397.223632812 343.165039062 382.594726562 303.388671875 c 0
 377.748046875 290.211914062 374.912109375 277.405273438 374.912109375 268.502929688 c 0
 374.912109375 242.452148438 404.055664062 234.84375 404.055664062 167.264648438 c 0
 404.055664062 103.146484375 355.373046875 44.623046875 292.454101562 4.6943359375 c 0
 287.272460938 1.4052734375 281.126953125 -0.5 274.540039062 -0.5 c 0
 256.051757812 -0.5 241.041015625 14.5107421875 241.041015625 32.9990234375 c 0
 241.041015625 44.900390625 247.26171875 55.361328125 256.624023438 61.3056640625 c 0
 270.780273438 70.2900390625 337.055664062 115.1328125 337.055664062 167.264648438 c 0
 337.055664062 170.669921875 336.846679688 183.969726562 333.772460938 194.256835938 c 0
 328.379882812 212.299804688 307.912109375 226.116210938 307.912109375 268.502929688 c 0
 307.912109375 286.012695312 311.596679688 302.3515625 316.510742188 317.36328125 c 1
EndSplineSet
EndChar

StartChar: uni213F
Encoding: 37 8511 37
Width: 647
VWidth: 0
Flags: HW
LayerCount: 2
Fore
SplineSet
50.994140625 432.999023438 m 0
 50.994140625 451.491210938 66.0078125 466.50390625 84.5 466.50390625 c 0
 100.83984375 466.50390625 114.462890625 454.782226562 117.413085938 439.295898438 c 0
 121.880859375 415.840820312 123.01953125 381.805664062 123.01953125 337.9296875 c 0
 123.01953125 184.015625 104.450195312 -81.970703125 91.82421875 -203.49609375 c 0
 90.0732421875 -220.345703125 75.8125 -233.501953125 58.501953125 -233.501953125 c 0
 40.01171875 -233.501953125 25 -218.490234375 25 -200 c 0
 25 -198.819335938 25.0615234375 -197.65234375 25.177734375 -196.572265625 c 2
 25.185546875 -196.50390625 l 2
 37.5 -77.974609375 56.01953125 188.888671875 56.01953125 337.9296875 c 0
 56.01953125 379.802734375 54.1875 413.098632812 51.5859375 426.7578125 c 0
 51.1982421875 428.7421875 50.994140625 430.846679688 50.994140625 432.999023438 c 0
588.534179688 466.502929688 m 0
 606.8828125 466.502929688 622.0390625 451.608398438 622.0390625 432.955078125 c 0
 622.0390625 430.08203125 595.350585938 -82.8017578125 574.533203125 -205.62890625 c 0
 571.852539062 -221.444335938 558.073242188 -233.50390625 541.5 -233.50390625 c 0
 523.008789062 -233.50390625 507.99609375 -218.491210938 507.99609375 -199.999023438 c 0
 507.99609375 -194.038085938 523.4765625 -133.416015625 552.846679688 394.473632812 c 1
 538.869140625 392.84765625 525.063476562 391.473632812 511.473632812 390.323242188 c 1
 511.53515625 383.86328125 511.565429688 377.420898438 511.565429688 370.997070312 c 0
 511.565429688 141.3828125 472.36328125 -72.1123046875 466.975585938 -201.416015625 c 0
 466.232421875 -219.25 451.51953125 -233.5 433.50390625 -233.5 c 0
 415.014648438 -233.5 400.00390625 -218.489257812 400.00390625 -200 c 0
 400.00390625 -179.64453125 404.282226562 -127.956054688 416.982421875 -15.017578125 c 0
 429.717773438 98.2353515625 444.565429688 230.7421875 444.565429688 370.997070312 c 0
 444.565429688 376.081054688 444.545898438 381.17578125 444.505859375 386.279296875 c 1
 425.5546875 385.581054688 407.236328125 385.27734375 389.689453125 385.27734375 c 0
 319.532226562 385.27734375 261.725585938 390.127929688 225.216796875 394.2578125 c 1
 225.309570312 388.3203125 225.337890625 381.987304688 225.337890625 375.208007812 c 0
 225.337890625 270.399414062 211.028320312 70.22265625 200.443359375 -78.8466796875 c 0
 197.009765625 -127.203125 193.966796875 -170.072265625 191.936523438 -202.14453125 c 0
 190.828125 -219.692382812 176.271484375 -233.557617188 158.501953125 -233.557617188 c 0
 140.012695312 -233.557617188 125.000976562 -218.545898438 125.000976562 -200.055664062 c 0
 125.000976562 -178.048828125 158.337890625 226.741210938 158.337890625 375.208007812 c 0
 158.337890625 414.997070312 155.001953125 430.889648438 155.001953125 433.021484375 c 0
 155.001953125 451.431640625 169.951171875 466.526367188 188.54296875 466.526367188 c 0
 190.483398438 466.526367188 192.387695312 466.360351562 194.241210938 466.041015625 c 2
 194.241210938 466.041015625 272.86328125 452.27734375 389.689453125 452.27734375 c 0
 507.086914062 452.27734375 580.399414062 466.502929688 588.534179688 466.502929688 c 0
EndSplineSet
EndChar

StartChar: uni2140
Encoding: 38 8512 38
Width: 550
VWidth: 0
Flags: HW
LayerCount: 2
Fore
SplineSet
380.959960938 452.858398438 m 0
 459.814453125 452.858398438 479.373046875 466.51953125 491.529296875 466.51953125 c 0
 510.021484375 466.51953125 525.03515625 451.505859375 525.03515625 433.012695312 c 0
 525.03515625 418.323242188 515.561523438 405.828125 502.375976562 401.303710938 c 0
 466.40234375 388.959960938 423.90234375 385.858398438 380.959960938 385.858398438 c 0
 327.12890625 385.858398438 274.655273438 391.168945312 228.645507812 395.825195312 c 1
 296.17578125 268.499023438 419.01171875 191.638671875 419.01171875 125 c 0
 419.01171875 88.537109375 369.638671875 11.9052734375 264.677734375 -138.849609375 c 0
 257.546875 -149.091796875 250.995117188 -158.622070312 245.416015625 -166.796875 c 1
 289.920898438 -166.618164062 361.868164062 -158.21484375 418.849609375 -158.21484375 c 0
 448.259765625 -158.21484375 475.197265625 -159.521484375 498.82421875 -168.838867188 c 0
 511.251953125 -173.740234375 520.055664062 -185.860351562 520.055664062 -200.021484375 c 0
 520.055664062 -218.513671875 505.04296875 -233.52734375 486.55078125 -233.52734375 c 0
 475.4296875 -233.52734375 468.288085938 -225.21484375 418.849609375 -225.21484375 c 0
 364.0078125 -225.21484375 292.836914062 -233.799804688 244.030273438 -233.799804688 c 0
 210.677734375 -233.799804688 185.754882812 -230.206054688 171.155273438 -212.629882812 c 0
 165.29296875 -205.572265625 161.4765625 -195.637695312 161.4765625 -185.873046875 c 0
 161.4765625 -169.829101562 162.923828125 -167.75 209.654296875 -100.630859375 c 0
 237.149414062 -61.140625 273.475585938 -8.9443359375 302.872070312 37.025390625 c 0
 326.236328125 73.5625 345.340820312 107.397460938 350.758789062 122.319335938 c 1
 351.88671875 124.734375 l 1
 336.229492188 169.293945312 196.504882812 273.83984375 144.915039062 419.849609375 c 0
 143.81640625 422.958007812 142.952148438 426.8203125 142.952148438 431.321289062 c 0
 142.952148438 433.758789062 143.70703125 466.54296875 184.302734375 466.54296875 c 0
 214.650390625 466.54296875 299.891601562 452.858398438 380.959960938 452.858398438 c 0
25 432.999023438 m 0
 25 451.491210938 40.013671875 466.504882812 58.505859375 466.504882812 c 0
 74.505859375 466.504882812 87.9013671875 455.265625 91.2216796875 440.2578125 c 0
 105.18359375 377.151367188 178.078125 282.422851562 225.91015625 220.264648438 c 0
 274.518554688 157.096679688 288.028320312 138.489257812 288.028320312 117.48046875 c 0
 288.028320312 105.940429688 286.852539062 94.353515625 232.36328125 6.033203125 c 0
 194.275390625 -55.7021484375 140.34765625 -138.298828125 87.451171875 -218.479492188 c 0
 81.45703125 -227.565429688 71.158203125 -233.565429688 59.4697265625 -233.565429688 c 0
 40.9814453125 -233.565429688 25.9716796875 -218.555664062 25.9716796875 -200.067382812 c 0
 25.9716796875 -193.268554688 28.0009765625 -186.939453125 31.5283203125 -181.5859375 c 0
 113.551757812 -57.2548828125 199.571289062 76.4306640625 218.801757812 116.549804688 c 1
 186.567382812 170.310546875 49.9208984375 316.720703125 25.7919921875 425.782226562 c 0
 25.2724609375 428.077148438 25 430.506835938 25 432.999023438 c 0
EndSplineSet
EndChar
